<?xml version="1.0" encoding="UTF-8" standalone="no"?>
<!-- Created with Inkscape (http://www.inkscape.org/) -->

<svg
   width="272"
   height="64.000008"
   viewBox="0 0 71.966665 16.933336"
   version="1.1"
   id="svg5"
   inkscape:version="1.1.2 (0a00cf5339, 2022-02-04)"
   sodipodi:docname="Microgrids-X.svg"
   xmlns:inkscape="http://www.inkscape.org/namespaces/inkscape"
   xmlns:sodipodi="http://sodipodi.sourceforge.net/DTD/sodipodi-0.dtd"
   xmlns:xlink="http://www.w3.org/1999/xlink"
   xmlns="http://www.w3.org/2000/svg"
   xmlns:svg="http://www.w3.org/2000/svg"
   xmlns:rdf="http://www.w3.org/1999/02/22-rdf-syntax-ns#"
   xmlns:cc="http://creativecommons.org/ns#"
   xmlns:dc="http://purl.org/dc/elements/1.1/">
  <title
     id="title14784">Logo for Microgrids.X family of packages</title>
  <sodipodi:namedview
     id="namedview7"
     pagecolor="#ffffff"
     bordercolor="#666666"
     borderopacity="1.0"
     inkscape:pageshadow="2"
     inkscape:pageopacity="0.0"
     inkscape:pagecheckerboard="0"
     inkscape:document-units="px"
     showgrid="true"
     units="px"
     width="64px"
     inkscape:zoom="0.99545067"
     inkscape:cx="154.7038"
     inkscape:cy="113.51642"
     inkscape:window-width="1920"
     inkscape:window-height="1008"
     inkscape:window-x="0"
     inkscape:window-y="0"
     inkscape:window-maximized="1"
     inkscape:current-layer="layer2"
     inkscape:snap-center="true"
     fit-margin-top="0"
     fit-margin-left="0"
     fit-margin-right="0"
     fit-margin-bottom="0"
     inkscape:snap-global="true">
    <inkscape:grid
       type="xygrid"
       id="grid1906"
       spacingx="0.26458334"
       spacingy="0.26458334"
       empspacing="8"
       originx="-1.1570605e-06"
       originy="16.933336" />
  </sodipodi:namedview>
  <defs
     id="defs2">
    <linearGradient
       inkscape:collect="always"
       id="linearGradient26645">
      <stop
         style="stop-color:#d4271c;stop-opacity:1"
         offset="0"
         id="stop26641" />
      <stop
         style="stop-color:#e81e96;stop-opacity:1"
         offset="0.5"
         id="stop32238" />
      <stop
         style="stop-color:#a127dc;stop-opacity:1"
         offset="1"
         id="stop26643" />
    </linearGradient>
    <linearGradient
       inkscape:collect="always"
       xlink:href="#linearGradient26645"
       id="linearGradient26647"
       x1="64.580879"
       y1="-12.590638"
       x2="69.875366"
       y2="-6.160203"
       gradientUnits="userSpaceOnUse" />
    <linearGradient
       inkscape:collect="always"
       xlink:href="#linearGradient26645"
       id="linearGradient35802"
       gradientUnits="userSpaceOnUse"
       x1="64.580879"
       y1="-12.590638"
       x2="69.875366"
       y2="-6.160203" />
  </defs>
  <g
     inkscape:groupmode="layer"
     id="layer2"
     inkscape:label="Blocks"
     style="display:inline"
     transform="translate(-2.9288183e-6,16.933332)" />
  <g
     inkscape:label="Icons"
     inkscape:groupmode="layer"
     id="layer1"
     style="display:inline"
     transform="translate(-2.9288183e-6,16.933332)" />
  <g
     inkscape:groupmode="layer"
     id="layer3"
     inkscape:label="Text"
     style="display:inline"
     transform="translate(-2.9288183e-6,16.933332)">
    <g
       id="use36851-7"
       transform="translate(1.8411719e-6,-16.933333)">
      <path
         style="font-variation-settings:normal;display:inline;opacity:1;fill:none;fill-opacity:1;stroke:#000000;stroke-width:0.529167;stroke-linecap:butt;stroke-linejoin:miter;stroke-miterlimit:4;stroke-dasharray:none;stroke-dashoffset:0;stroke-opacity:1;stop-color:#000000;stop-opacity:1"
         d="m 3.7041677,2.9674054 3.175,5.4992615"
         id="path35402"
         sodipodi:nodetypes="cc"
         inkscape:transform-center-x="1.5875"
         inkscape:transform-center-y="-2.7496308" />
      <path
         style="font-variation-settings:normal;display:inline;fill:none;fill-opacity:1;stroke:#000000;stroke-width:0.529167;stroke-linecap:butt;stroke-linejoin:miter;stroke-miterlimit:4;stroke-dasharray:none;stroke-dashoffset:0;stroke-opacity:1;stop-color:#000000"
         d="m 13.229168,8.466667 -6.3500003,-10e-8"
         id="use35404"
         sodipodi:nodetypes="cc"
         inkscape:transform-center-x="1.5875"
         inkscape:transform-center-y="-2.7496308" />
      <path
         style="font-variation-settings:normal;display:inline;fill:none;fill-opacity:1;stroke:#000000;stroke-width:0.529167;stroke-linecap:butt;stroke-linejoin:miter;stroke-miterlimit:4;stroke-dasharray:none;stroke-dashoffset:0;stroke-opacity:1;stop-color:#000000"
         d="M 3.7041675,13.965928 6.8791677,8.4666669"
         id="use35406"
         sodipodi:nodetypes="cc"
         inkscape:transform-center-x="1.5875"
         inkscape:transform-center-y="-2.7496308" />
      <path
         sodipodi:type="star"
         style="font-variation-settings:normal;opacity:1;vector-effect:none;fill:#000000;fill-opacity:1;fill-rule:evenodd;stroke:none;stroke-width:1.09106;stroke-linecap:round;stroke-linejoin:miter;stroke-miterlimit:4;stroke-dasharray:none;stroke-dashoffset:0;stroke-opacity:1;-inkscape-stroke:none;stop-color:#000000;stop-opacity:1"
         id="path35408"
         inkscape:flatsided="true"
         sodipodi:sides="3"
         sodipodi:cx="40"
         sodipodi:cy="48"
         sodipodi:r1="4"
         sodipodi:r2="2.5"
         sodipodi:arg1="0"
         sodipodi:arg2="1.0471976"
         inkscape:rounded="0"
         inkscape:randomized="0"
         d="m 44,48 -6,3.464102 v -6.928204 z"
         transform="matrix(0.22913593,0,0,0.22913593,-0.5050818,-2.5318581)"
         inkscape:transform-center-x="-2.8040736" />
      <path
         sodipodi:type="star"
         style="font-variation-settings:normal;opacity:1;vector-effect:none;fill:#000000;fill-opacity:1;fill-rule:evenodd;stroke:none;stroke-width:1.09106;stroke-linecap:round;stroke-linejoin:miter;stroke-miterlimit:4;stroke-dasharray:none;stroke-dashoffset:0;stroke-opacity:1;-inkscape-stroke:none;stop-color:#000000;stop-opacity:1"
         id="path35410"
         inkscape:flatsided="true"
         sodipodi:sides="3"
         sodipodi:cx="40"
         sodipodi:cy="48"
         sodipodi:r1="4"
         sodipodi:r2="2.5"
         sodipodi:arg1="0"
         sodipodi:arg2="1.0471976"
         inkscape:rounded="0"
         inkscape:randomized="0"
         d="m 44,48 -6,3.464102 v -6.928204 z"
         transform="matrix(0.11456796,-0.19843754,-0.19843754,-0.11456796,11.256837,22.88137)"
         inkscape:transform-center-x="0.79375016"
         inkscape:transform-center-y="0.9779393" />
      <path
         sodipodi:type="star"
         style="font-variation-settings:normal;vector-effect:none;fill:#000000;fill-opacity:1;fill-rule:evenodd;stroke:none;stroke-width:1.09106;stroke-linecap:round;stroke-linejoin:miter;stroke-miterlimit:4;stroke-dasharray:none;stroke-dashoffset:0;stroke-opacity:1;-inkscape-stroke:none;stop-color:#000000"
         id="use35412"
         inkscape:flatsided="true"
         sodipodi:sides="3"
         sodipodi:cx="40"
         sodipodi:cy="48"
         sodipodi:r1="4"
         sodipodi:r2="2.5"
         sodipodi:arg1="0"
         sodipodi:arg2="1.0471976"
         inkscape:rounded="0"
         inkscape:randomized="0"
         d="m 44,48 -6,3.464102 v -6.928204 z"
         transform="matrix(-0.11456796,0.19843754,-0.19843754,-0.11456796,19.699419,8.2583887)"
         inkscape:transform-center-x="-2.8040736" />
      <path
         sodipodi:type="star"
         style="font-variation-settings:normal;opacity:1;vector-effect:none;fill:#000000;fill-opacity:1;fill-rule:evenodd;stroke:none;stroke-width:1.09106;stroke-linecap:round;stroke-linejoin:miter;stroke-miterlimit:4;stroke-dasharray:none;stroke-dashoffset:0;stroke-opacity:1;-inkscape-stroke:none;stop-color:#000000;stop-opacity:1"
         id="path35414"
         inkscape:flatsided="true"
         sodipodi:sides="3"
         sodipodi:cx="40"
         sodipodi:cy="48"
         sodipodi:r1="4"
         sodipodi:r2="2.5"
         sodipodi:arg1="0"
         sodipodi:arg2="1.0471976"
         inkscape:rounded="0"
         inkscape:randomized="0"
         d="m 44,48 -6,3.464102 v -6.928204 z"
         transform="matrix(0.11456796,0.19843754,0.19843754,-0.11456796,-8.1900412,4.3630804)"
         inkscape:transform-center-x="1.1906246"
         inkscape:transform-center-y="-1.6653467" />
    </g>
    <circle
       style="font-variation-settings:normal;display:inline;opacity:1;vector-effect:none;fill:#f5eb28;fill-opacity:1;fill-rule:evenodd;stroke:#000000;stroke-width:0.264583;stroke-linecap:round;stroke-linejoin:miter;stroke-miterlimit:4;stroke-dasharray:none;stroke-dashoffset:0;stroke-opacity:1;-inkscape-stroke:none;stop-color:#000000;stop-opacity:1"
       id="path32944-2-92"
       cx="3.7041726"
       cy="-13.965927"
       r="2.6458335" />
    <circle
       style="font-variation-settings:normal;display:inline;opacity:1;vector-effect:none;fill:#d22a20;fill-opacity:1;fill-rule:evenodd;stroke:#000000;stroke-width:0.264583;stroke-linecap:round;stroke-linejoin:miter;stroke-miterlimit:4;stroke-dasharray:none;stroke-dashoffset:0;stroke-opacity:1;-inkscape-stroke:none;stop-color:#000000;stop-opacity:1"
       id="circle33388-5-0"
       cx="13.229171"
       cy="-8.4666653"
       r="2.6458335" />
    <circle
       style="font-variation-settings:normal;display:inline;opacity:1;vector-effect:none;fill:#9558b2;fill-opacity:1;fill-rule:evenodd;stroke:#000000;stroke-width:0.264583;stroke-linecap:round;stroke-linejoin:miter;stroke-miterlimit:4;stroke-dasharray:none;stroke-dashoffset:0;stroke-opacity:1;-inkscape-stroke:none;stop-color:#000000;stop-opacity:1"
       id="circle33432-3-2"
       cx="3.7041726"
       cy="-2.9674056"
       r="2.6458335" />
    <g
       id="use4341-3"
       transform="translate(2.5411719e-6,-16.933334)">
      <g
         style="display:inline;stroke-width:3.77952"
         transform="matrix(0.19843744,0,0,0.19843744,-27.053634,4.5549064)"
         id="g35650">
        <circle
           style="color:#000000;clip-rule:nonzero;display:inline;overflow:visible;visibility:visible;opacity:1;isolation:auto;mix-blend-mode:normal;color-interpolation:sRGB;color-interpolation-filters:linearRGB;solid-color:#000000;solid-opacity:1;vector-effect:none;fill:#000000;fill-opacity:1;fill-rule:nonzero;stroke:none;stroke-width:7.55905;stroke-linecap:round;stroke-linejoin:miter;stroke-miterlimit:4;stroke-dasharray:none;stroke-dashoffset:0;stroke-opacity:1;marker:none;marker-start:none;marker-end:none;color-rendering:auto;image-rendering:auto;shape-rendering:auto;text-rendering:auto;enable-background:accumulate"
           id="circle35636"
           cx="155"
           cy="-8.0000086"
           r="5" />
        <rect
           style="color:#000000;clip-rule:nonzero;display:inline;overflow:visible;visibility:visible;opacity:1;isolation:auto;mix-blend-mode:normal;color-interpolation:sRGB;color-interpolation-filters:linearRGB;solid-color:#000000;solid-opacity:1;vector-effect:none;fill:#000000;fill-opacity:1;fill-rule:nonzero;stroke:none;stroke-width:7.55905;stroke-linecap:round;stroke-linejoin:miter;stroke-miterlimit:4;stroke-dasharray:none;stroke-dashoffset:0;stroke-opacity:1;marker:none;marker-start:none;marker-end:none;color-rendering:auto;image-rendering:auto;shape-rendering:auto;text-rendering:auto;enable-background:accumulate"
           id="rect35638"
           width="1"
           height="16.000004"
           x="154.5"
           y="-16.00001" />
        <rect
           style="color:#000000;clip-rule:nonzero;display:inline;overflow:visible;visibility:visible;isolation:auto;mix-blend-mode:normal;color-interpolation:sRGB;color-interpolation-filters:linearRGB;solid-color:#000000;solid-opacity:1;vector-effect:none;fill:#000000;fill-opacity:1;fill-rule:nonzero;stroke:none;stroke-width:7.55905;stroke-linecap:round;stroke-linejoin:miter;stroke-miterlimit:4;stroke-dasharray:none;stroke-dashoffset:0;stroke-opacity:1;marker:none;marker-start:none;marker-end:none;color-rendering:auto;image-rendering:auto;shape-rendering:auto;text-rendering:auto;enable-background:accumulate"
           id="use35640"
           width="1"
           height="16.000004"
           x="129.73393"
           y="-92.428207"
           transform="rotate(30)" />
        <rect
           style="color:#000000;clip-rule:nonzero;display:inline;overflow:visible;visibility:visible;isolation:auto;mix-blend-mode:normal;color-interpolation:sRGB;color-interpolation-filters:linearRGB;solid-color:#000000;solid-opacity:1;vector-effect:none;fill:#000000;fill-opacity:1;fill-rule:nonzero;stroke:none;stroke-width:7.55905;stroke-linecap:round;stroke-linejoin:miter;stroke-miterlimit:4;stroke-dasharray:none;stroke-dashoffset:0;stroke-opacity:1;marker:none;marker-start:none;marker-end:none;color-rendering:auto;image-rendering:auto;shape-rendering:auto;text-rendering:auto;enable-background:accumulate"
           id="use35642"
           width="1"
           height="16.000004"
           x="70.071785"
           y="-146.23393"
           transform="rotate(60)" />
        <rect
           style="color:#000000;clip-rule:nonzero;display:inline;overflow:visible;visibility:visible;isolation:auto;mix-blend-mode:normal;color-interpolation:sRGB;color-interpolation-filters:linearRGB;solid-color:#000000;solid-opacity:1;vector-effect:none;fill:#000000;fill-opacity:1;fill-rule:nonzero;stroke:none;stroke-width:7.55905;stroke-linecap:round;stroke-linejoin:miter;stroke-miterlimit:4;stroke-dasharray:none;stroke-dashoffset:0;stroke-opacity:1;marker:none;marker-start:none;marker-end:none;color-rendering:auto;image-rendering:auto;shape-rendering:auto;text-rendering:auto;enable-background:accumulate"
           id="use35644"
           width="1"
           height="16.000004"
           x="-8.5000162"
           y="-163"
           transform="rotate(90)" />
        <rect
           style="color:#000000;clip-rule:nonzero;display:inline;overflow:visible;visibility:visible;isolation:auto;mix-blend-mode:normal;color-interpolation:sRGB;color-interpolation-filters:linearRGB;solid-color:#000000;solid-opacity:1;vector-effect:none;fill:#000000;fill-opacity:1;fill-rule:nonzero;stroke:none;stroke-width:7.55905;stroke-linecap:round;stroke-linejoin:miter;stroke-miterlimit:4;stroke-dasharray:none;stroke-dashoffset:0;stroke-opacity:1;marker:none;marker-start:none;marker-end:none;color-rendering:auto;image-rendering:auto;shape-rendering:auto;text-rendering:auto;enable-background:accumulate"
           id="use35646"
           width="1"
           height="16.000004"
           x="-84.9282"
           y="-138.23392"
           transform="rotate(120)" />
        <rect
           style="color:#000000;clip-rule:nonzero;display:inline;overflow:visible;visibility:visible;isolation:auto;mix-blend-mode:normal;color-interpolation:sRGB;color-interpolation-filters:linearRGB;solid-color:#000000;solid-opacity:1;vector-effect:none;fill:#000000;fill-opacity:1;fill-rule:nonzero;stroke:none;stroke-width:7.55905;stroke-linecap:round;stroke-linejoin:miter;stroke-miterlimit:4;stroke-dasharray:none;stroke-dashoffset:0;stroke-opacity:1;marker:none;marker-start:none;marker-end:none;color-rendering:auto;image-rendering:auto;shape-rendering:auto;text-rendering:auto;enable-background:accumulate"
           id="use35648"
           width="1"
           height="16.000004"
           x="-138.73393"
           y="-78.571777"
           transform="rotate(150)" />
      </g>
      <g
         id="g35660"
         transform="matrix(0.08400522,0,0,0.08400522,-35.983339,-38.828843)"
         inkscape:export-filename="./wind_storage_FR.png"
         inkscape:export-xdpi="150.03252"
         inkscape:export-ydpi="150.03252"
         style="display:inline">
        <g
           style="display:inline"
           id="g35658"
           transform="translate(-151.1921,60.959583)">
          <path
             style="display:inline;fill:#000000;fill-opacity:1;stroke:none;stroke-width:1.06667"
             d="m 718.12123,492.49761 v 25.29764 h 37.79527 v -25.29764 l -18.89764,-12.49763 -18.89763,12.49763"
             id="path35652"
             inkscape:connector-curvature="0"
             sodipodi:nodetypes="cccccc"
             inkscape:export-filename="/home/pierre/Documents eolien/Travaux/50 Images/wind_storage.png"
             inkscape:export-xdpi="129.68228"
             inkscape:export-ydpi="129.68228" />
          <rect
             y="497.78329"
             x="722.6106"
             height="9.2471447"
             width="12.182525"
             id="rect35654"
             style="color:#000000;display:inline;overflow:visible;visibility:visible;fill:#ffffff;fill-opacity:1;fill-rule:nonzero;stroke:none;stroke-width:0.755906;marker:none;enable-background:accumulate" />
          <rect
             style="color:#000000;display:inline;overflow:visible;visibility:visible;fill:#ffffff;fill-opacity:1;fill-rule:nonzero;stroke:none;stroke-width:0.755906;marker:none;enable-background:accumulate"
             id="rect35656"
             width="12.182525"
             height="9.2471447"
             x="739.1153"
             y="497.78329" />
        </g>
      </g>
      <g
         style="display:inline"
         inkscape:export-ydpi="150.03252"
         inkscape:export-xdpi="150.03252"
         inkscape:export-filename="./wind_storage_FR.png"
         transform="matrix(0.08367052,0,0,0.08367052,-45.312263,-36.562807)"
         id="g35668">
        <path
           style="display:inline;fill:#000000;fill-opacity:1;stroke:none;stroke-width:1.06667"
           d="m 566.92913,591.25247 v 25.29764 h 37.79528 v -25.29764 h -37.79528"
           id="path35662"
           inkscape:connector-curvature="0"
           sodipodi:nodetypes="ccccc"
           inkscape:export-filename="/home/pierre/Documents eolien/Travaux/50 Images/wind_storage.png"
           inkscape:export-xdpi="129.68228"
           inkscape:export-ydpi="129.68228" />
        <path
           inkscape:connector-curvature="0"
           id="path35664"
           d="m 590.88774,599.7858 h 7.55907"
           style="display:inline;fill:none;stroke:#ffffff;stroke-width:1.88976;stroke-linecap:butt;stroke-linejoin:miter;stroke-miterlimit:4;stroke-dasharray:none;stroke-opacity:1"
           inkscape:export-filename="/home/pierre/Documents eolien/Travaux/50 Images/wind_storage.png"
           inkscape:export-xdpi="129.68228"
           inkscape:export-ydpi="129.68228" />
        <path
           inkscape:connector-curvature="0"
           d="m 576.91249,596.00628 v 7.55905 m -3.77953,-3.77952 h 7.55905"
           style="display:inline;fill:none;stroke:#ffffff;stroke-width:1.88976;stroke-linecap:butt;stroke-linejoin:miter;stroke-miterlimit:4;stroke-dasharray:none;stroke-opacity:1"
           id="path35666"
           inkscape:export-filename="/home/pierre/Documents eolien/Travaux/50 Images/wind_storage.png"
           inkscape:export-xdpi="129.68228"
           inkscape:export-ydpi="129.68228" />
      </g>
    </g>
    <g
       aria-label="Microgrids.X"
       id="text1170"
       style="font-size:9.87778px;line-height:1.25;font-family:'Linux Biolinum O';-inkscape-font-specification:'Linux Biolinum O, Normal';letter-spacing:0px;word-spacing:0px;display:inline;stroke-width:0.264583">
      <path
         d="m 19.963064,-12.728927 c -0.345723,1.995312 -0.889001,4.721579 -1.274234,6.5687238 0.108656,-0.029633 0.207433,-0.029633 0.325967,-0.029633 0.108655,0 0.187678,0 0.296333,0.029633 0.148167,-1.0371669 0.484011,-3.2399118 0.721078,-4.7314568 h 0.04939 c 0.740833,1.5705673 1.442156,3.1707676 2.074334,4.7018235 h 0.187678 c 0.7112,-1.6199559 1.412522,-3.1213785 2.192867,-4.6721895 l 0.02963,0.0099 c 0.207433,1.5508118 0.404989,3.0621121 0.553156,4.6919458 0.148166,-0.029633 0.335844,-0.029633 0.484011,-0.029633 0.148167,0 0.404989,0 0.553156,0.029633 -0.3556,-2.1138449 -0.651934,-4.1684228 -0.928512,-6.5687238 h -0.246944 l -2.400301,4.899379 h -0.07902 c -0.780345,-1.6199559 -1.491545,-3.200401 -2.212623,-4.899379 z"
         id="path1249" />
      <path
         d="m 27.598584,-12.086871 c 0,0.2667 0.237067,0.503767 0.503767,0.503767 0.2667,0 0.503767,-0.237067 0.503767,-0.503767 0,-0.2667 -0.237067,-0.503767 -0.503767,-0.503767 -0.2667,0 -0.503767,0.237067 -0.503767,0.503767 z m 0.09878,3.5757562 v 0.5432779 c 0,0.7408335 -0.01975,1.2446003 -0.0889,1.7780004 l 0.01976,0.029633 c 0.118533,-0.019756 0.345722,-0.029633 0.464255,-0.029633 0.118534,0 0.345723,0.00988 0.464256,0.029633 l 0.01976,-0.029633 c -0.07902,-0.5531557 -0.0889,-1.0272891 -0.0889,-1.7780004 v -0.7013224 c 0,-0.7408335 0.01975,-1.0964335 0.0889,-1.6989777 0,-0.0889 -0.01976,-0.09878 -0.0889,-0.09878 -0.227189,0.02963 -0.651934,0.02963 -0.859367,0.0099 l -0.01976,0.02963 c 0.05927,0.424744 0.0889,1.1754557 0.0889,1.9162892 z"
         id="path1251" />
      <path
         d="m 31.846013,-10.131071 c 0.375355,0 0.721078,0.2864559 0.987778,0.730956 l 0.128411,-0.00988 0.227189,-0.809978 -0.01976,-0.02963 c -0.306211,-0.158045 -0.819855,-0.276578 -1.313744,-0.276578 -1.02729,0 -2.103968,0.8396112 -2.103968,2.1829893 0,1.3828892 0.780345,2.2521338 1.985434,2.2521338 0.592667,0 1.056923,-0.1975556 1.452034,-0.7013224 l -0.187678,-0.2074334 h -0.03951 c -0.375356,0.3358446 -0.691445,0.4148668 -1.056922,0.4148668 -0.721078,0 -1.284112,-0.6519335 -1.284112,-1.8076337 0,-1.0865558 0.572911,-1.7384894 1.224845,-1.7384894 z"
         id="path1253" />
      <path
         d="m 35.263715,-9.489015 v -0.898878 c 0,-0.06914 -0.01975,-0.09878 -0.05927,-0.09878 -0.227189,0.04939 -0.582789,0.05927 -0.8001,0.02963 l -0.01976,0.02963 c 0.06914,0.4346222 0.0889,1.1754557 0.0889,1.9162892 v 0.5432779 c 0,0.7408335 -0.01975,1.2544781 -0.0889,1.7780004 l 0.01976,0.029633 c 0.118533,-0.019756 0.345722,-0.029633 0.464255,-0.029633 0.118534,0 0.345723,0.00988 0.464256,0.029633 l 0.01976,-0.029633 c -0.07902,-0.5630335 -0.0889,-1.0272891 -0.0889,-1.7780004 v -0.5136446 c 0,-0.4148667 0.118534,-0.6519334 0.335845,-0.9779002 0.138289,-0.2173111 0.365478,-0.3457223 0.553156,-0.3457223 0.197555,0 0.385233,0.019756 0.513644,0.138289 l 0.07902,-0.019756 0.197556,-0.730955 -0.03951,-0.03951 c -0.167922,-0.04939 -0.1778,-0.06915 -0.3556,-0.06915 -0.5334,0 -0.819856,0.306211 -1.254478,1.0569222 z"
         id="path1255" />
      <path
         d="m 37.417054,-8.2147814 c 0,1.1853336 0.780345,2.1237227 2.094089,2.1237227 1.303867,0 2.09409,-0.9186335 2.09409,-2.2126227 0,-1.3433781 -0.721078,-2.2225006 -2.054578,-2.2225006 -1.29399,0 -2.133601,0.9087559 -2.133601,2.3114006 z m 2.064456,-1.9162896 c 1.047045,0 1.254478,0.8099783 1.254478,2.0051896 0,0.9482669 -0.474133,1.6397115 -1.135945,1.6397115 -1.047044,0 -1.313744,-1.1359447 -1.313744,-1.8965338 0,-0.8593668 0.2667,-1.7483673 1.195211,-1.7483673 z"
         id="path1257" />
      <path
         d="m 42.978224,-5.1625474 c 0,-0.3259667 0.296333,-0.6914446 0.642055,-0.8791224 0.286456,0 0.740834,-0.029633 0.879123,-0.029633 0.474133,0 0.770467,0.00988 1.047044,0.1679222 0.286456,0.1679223 0.385234,0.4543779 0.385234,0.7112002 0,0.6025446 -0.809978,0.9186335 -1.659467,0.9186335 -0.642056,0 -1.293989,-0.2173111 -1.293989,-0.8890005 z m 2.854678,-3.8424564 c 0,-0.6815668 -0.2667,-0.9976562 -0.503767,-1.1458222 0.296334,0.01975 0.6223,0.05927 1.037167,0.09878 l 0.02963,-0.02963 c -0.01976,-0.0889 -0.02963,-0.167922 -0.02963,-0.256822 0,-0.0889 0.0099,-0.167922 0.02963,-0.256822 l -0.02963,-0.02963 c -0.474133,0.04939 -0.829733,0.148167 -1.560689,0.187678 -0.1778,-0.05927 -0.395111,-0.0889 -0.602545,-0.0889 -0.780344,0 -1.679222,0.523522 -1.679222,1.5014226 0,0.7408335 0.424744,1.0766781 0.701322,1.2347225 -0.286455,0.1975556 -0.632178,0.4840113 -0.632178,0.8198558 0,0.404989 0.237067,0.760589 0.760589,0.8593668 -0.2667,0.1086556 -0.582789,0.2963334 -0.829733,0.493889 -0.128411,0.1876779 -0.227189,0.4741335 -0.227189,0.6519335 0,0.7803446 0.849489,1.1161891 1.896534,1.1161891 1.540933,0 2.459567,-0.6420556 2.459567,-1.570567 0,-0.4346223 -0.138289,-0.7408335 -0.414867,-0.9779002 -0.375356,-0.3160889 -1.047045,-0.3259667 -1.392767,-0.3259667 -0.167922,0 -0.563033,0.019755 -0.790222,0.049389 -0.138289,0.00988 -0.237067,0.019755 -0.286456,0.019755 -0.276578,0 -0.572911,-0.039511 -0.572911,-0.4642556 0,-0.1975556 0.04939,-0.3654779 0.2667,-0.5531557 0.128411,0.069145 0.424744,0.1382889 0.730956,0.1382889 1.027289,0 1.639711,-0.6914446 1.639711,-1.4717892 z m -0.770467,0.00988 c 0,0.6025446 -0.246944,1.0668002 -0.839611,1.0668002 -0.7112,0 -0.928511,-0.4642556 -0.928511,-1.1458225 0,-0.6519334 0.296333,-1.0766779 0.869244,-1.0766779 0.642056,0 0.898878,0.4543778 0.898878,1.1557002 z"
         id="path1259" />
      <path
         d="m 48.559156,-9.489015 v -0.898878 c 0,-0.06914 -0.01976,-0.09878 -0.05927,-0.09878 -0.227188,0.04939 -0.582789,0.05927 -0.8001,0.02963 l -0.01976,0.02963 c 0.06914,0.4346222 0.0889,1.1754557 0.0889,1.9162892 v 0.5432779 c 0,0.7408335 -0.01976,1.2544781 -0.0889,1.7780004 l 0.01976,0.029633 c 0.118534,-0.019756 0.345723,-0.029633 0.464256,-0.029633 0.118533,0 0.345722,0.00988 0.464256,0.029633 l 0.01975,-0.029633 c -0.07902,-0.5630335 -0.0889,-1.0272891 -0.0889,-1.7780004 v -0.5136446 c 0,-0.4148667 0.118533,-0.6519334 0.335845,-0.9779002 0.138289,-0.2173111 0.365478,-0.3457223 0.553155,-0.3457223 0.197556,0 0.385234,0.019756 0.513645,0.138289 l 0.07902,-0.019756 0.197556,-0.730955 -0.03951,-0.03951 c -0.167923,-0.04939 -0.1778,-0.06915 -0.3556,-0.06915 -0.533401,0 -0.819856,0.306211 -1.254479,1.0569222 z"
         id="path1261" />
      <path
         d="m 51.206398,-12.086871 c 0,0.2667 0.237067,0.503767 0.503767,0.503767 0.2667,0 0.503767,-0.237067 0.503767,-0.503767 0,-0.2667 -0.237067,-0.503767 -0.503767,-0.503767 -0.2667,0 -0.503767,0.237067 -0.503767,0.503767 z m 0.09878,3.5757562 v 0.5432779 c 0,0.7408335 -0.01976,1.2446003 -0.0889,1.7780004 l 0.01976,0.029633 c 0.118533,-0.019756 0.345722,-0.029633 0.464255,-0.029633 0.118534,0 0.345723,0.00988 0.464256,0.029633 l 0.01975,-0.029633 c -0.07902,-0.5531557 -0.0889,-1.0272891 -0.0889,-1.7780004 v -0.7013224 c 0,-0.7408335 0.01976,-1.0964335 0.0889,-1.6989777 0,-0.0889 -0.01975,-0.09878 -0.0889,-0.09878 -0.227189,0.02963 -0.651933,0.02963 -0.859366,0.0099 l -0.01976,0.02963 c 0.05927,0.424744 0.0889,1.1754557 0.0889,1.9162892 z"
         id="path1263" />
      <path
         d="m 56.550261,-7.3060256 c -0.365478,0.4642556 -0.819856,0.7013223 -1.214967,0.7013223 -0.5334,0 -0.987778,-0.5334001 -0.987778,-1.7681226 0,-1.481667 0.780345,-1.7582451 1.264356,-1.7582451 0.464256,0 0.701322,0.1975559 0.938389,0.5729115 z m 0,0.5432779 h 0.01976 l 0.04939,0.5729112 c 0,0.019756 0.02963,0.029633 0.0889,0.029633 0.128411,-0.00988 0.197555,-0.029633 0.335844,-0.029633 0.128411,0 0.316089,0.00988 0.4445,0.029633 l 0.01976,-0.029633 c -0.07902,-0.4247445 -0.167922,-1.1557003 -0.167922,-1.8965338 v -3.0423557 c 0,-0.730956 0.03951,-1.244601 0.0889,-1.857023 0,-0.06915 -0.02963,-0.09878 -0.0889,-0.09878 -0.256823,0.09878 -0.464256,0.167922 -0.859367,0.197556 l -0.01976,0.02963 c 0.06915,0.424745 0.0889,1.1557 0.0889,1.906412 v 0.642055 c -0.227189,-0.128411 -0.632178,-0.217311 -0.829733,-0.217311 -1.293989,0 -2.232379,0.8890003 -2.232379,2.2323784 0,1.2149669 0.721078,2.2027449 1.787879,2.2027449 0.474133,0 0.918633,-0.2074334 1.274233,-0.671689 z"
         id="path1265" />
      <path
         d="m 58.713482,-7.1874923 -0.167922,0.8297335 c 0.563033,0.1975556 1.116189,0.2667001 1.491545,0.2667001 1.363133,0 1.679222,-0.809978 1.679222,-1.3532559 0,-0.8099779 -0.642056,-1.1260669 -1.343378,-1.2939891 -0.375356,-0.0889 -0.918633,-0.2765779 -0.918633,-0.7704669 0,-0.4049889 0.325966,-0.6223004 0.750711,-0.6223004 0.513644,0 0.829733,0.4049893 1.056922,0.6716893 l 0.138289,-0.00988 0.197556,-0.7309553 -0.01976,-0.02963 c -0.286455,-0.148166 -0.829733,-0.296333 -1.3335,-0.296333 -0.730956,0 -1.491545,0.385234 -1.491545,1.205089 0,0.7902223 0.582789,1.0569224 1.185334,1.2149669 0.572911,0.1580445 0.997656,0.3160889 0.997656,0.8001002 0,0.5235223 -0.385234,0.8198557 -0.908756,0.8198557 -0.474134,0 -0.889,-0.3259667 -1.165578,-0.7112002 z"
         id="path1267" />
      <path
         d="m 62.664591,-6.6244588 c 0.07902,0.3358445 0.217312,0.4642556 0.5334,0.5334001 h 0.03951 c 0.276577,-0.069145 0.424744,-0.2074334 0.5334,-0.5334001 v -0.039511 c -0.09878,-0.2765779 -0.246945,-0.4247446 -0.5334,-0.5334002 h -0.03951 c -0.306211,0.1284112 -0.4445,0.2765779 -0.5334,0.5334002 z"
         id="path1269" />
    </g>
    <g
       aria-label="Microgrids.X"
       id="g24425"
       style="font-size:9.87778px;line-height:1.25;font-family:'Linux Biolinum O';-inkscape-font-specification:'Linux Biolinum O, Normal';letter-spacing:0px;word-spacing:0px;display:inline;fill:url(#linearGradient26647);fill-opacity:1;stroke-width:0.264583">
      <path
         d="m 69.875366,-6.1602032 c -0.8001,-1.1260669 -1.442156,-2.1138449 -2.301522,-3.4374674 0.898878,-1.3236224 1.708856,-2.3904224 2.143478,-2.9929674 -0.108656,0.02963 -0.306211,0.02963 -0.414867,0.02963 -0.108656,0 -0.306211,0 -0.414867,-0.02963 -0.543278,0.997656 -0.780344,1.353256 -1.6002,2.548467 -0.651934,-0.997655 -1.313745,-1.9558 -1.590323,-2.548467 -0.1778,0.02963 -0.395111,0.02963 -0.563033,0.02963 -0.167922,0 -0.385234,0 -0.553156,-0.02963 l 2.133601,3.2300341 -2.18299,3.2004007 c 0.108656,-0.029633 0.306212,-0.029633 0.414867,-0.029633 0.118533,0 0.306211,0 0.414867,0.029633 0.523522,-0.9680224 1.096433,-1.8965337 1.649589,-2.736145 0.632178,0.9482669 1.195211,1.748367 1.718734,2.736145 0.1778,-0.029633 0.395111,-0.029633 0.572911,-0.029633 0.1778,0 0.395111,0 0.572911,0.029633 z"
         id="path24423"
         style="fill:url(#linearGradient35802);fill-opacity:1" />
    </g>
  </g>
  <metadata
     id="metadata14780">
    <rdf:RDF>
      <cc:Work
         rdf:about="">
        <dc:title>Logo for Microgrids.X family of packages</dc:title>
        <dc:creator>
          <cc:Agent>
            <dc:title>Pierre Haessig</dc:title>
          </cc:Agent>
        </dc:creator>
        <dc:date>2022-08</dc:date>
        <dc:rights>
          <cc:Agent>
            <dc:title>CC-BY</dc:title>
          </cc:Agent>
        </dc:rights>
      </cc:Work>
    </rdf:RDF>
  </metadata>
</svg>
