<?xml version="1.0" encoding="UTF-8" standalone="no"?>
<!-- Created with Inkscape (http://www.inkscape.org/) -->

<svg
   width="312"
   height="64"
   viewBox="0 0 82.549998 16.933334"
   version="1.1"
   id="svg5"
   inkscape:version="1.1.2 (0a00cf5339, 2022-02-04)"
   sodipodi:docname="Microgrids-web.svg"
   xmlns:inkscape="http://www.inkscape.org/namespaces/inkscape"
   xmlns:sodipodi="http://sodipodi.sourceforge.net/DTD/sodipodi-0.dtd"
   xmlns:xlink="http://www.w3.org/1999/xlink"
   xmlns="http://www.w3.org/2000/svg"
   xmlns:svg="http://www.w3.org/2000/svg"
   xmlns:rdf="http://www.w3.org/1999/02/22-rdf-syntax-ns#"
   xmlns:cc="http://creativecommons.org/ns#"
   xmlns:dc="http://purl.org/dc/elements/1.1/">
  <title
     id="title14784">Logo for Microgrids.web</title>
  <sodipodi:namedview
     id="namedview7"
     pagecolor="#ffffff"
     bordercolor="#666666"
     borderopacity="1.0"
     inkscape:pageshadow="2"
     inkscape:pageopacity="0.0"
     inkscape:pagecheckerboard="0"
     inkscape:document-units="px"
     showgrid="false"
     units="px"
     width="64px"
     inkscape:zoom="10.113586"
     inkscape:cx="12.656243"
     inkscape:cy="15.32592"
     inkscape:window-width="1920"
     inkscape:window-height="1008"
     inkscape:window-x="0"
     inkscape:window-y="0"
     inkscape:window-maximized="1"
     inkscape:current-layer="layer2"
     inkscape:snap-center="true"
     fit-margin-top="0"
     fit-margin-left="0"
     fit-margin-right="0"
     fit-margin-bottom="0"
     inkscape:snap-global="true">
    <inkscape:grid
       type="xygrid"
       id="grid1906"
       spacingx="0.26458334"
       spacingy="0.26458334"
       empspacing="8"
       originx="2.7345123e-07"
       originy="-50.800002" />
  </sodipodi:namedview>
  <defs
     id="defs2">
    <linearGradient
       inkscape:collect="always"
       id="linearGradient29397">
      <stop
         style="stop-color:#ff7a1f;stop-opacity:1"
         offset="0"
         id="stop29393" />
      <stop
         style="stop-color:#ffd93c;stop-opacity:1"
         offset="1"
         id="stop29395" />
    </linearGradient>
    <linearGradient
       inkscape:collect="always"
       id="linearGradient5588">
      <stop
         style="stop-color:#ff632d;stop-opacity:1"
         offset="0"
         id="stop5584" />
      <stop
         style="stop-color:#ef1f67;stop-opacity:1"
         offset="1"
         id="stop5586" />
    </linearGradient>
    <linearGradient
       inkscape:collect="always"
       id="linearGradient143428">
      <stop
         style="stop-color:#675cdd;stop-opacity:0;"
         offset="0"
         id="stop143426" />
      <stop
         style="stop-color:#675cdd;stop-opacity:0"
         offset="0.69999999"
         id="stop147998" />
      <stop
         style="stop-color:#4014b6;stop-opacity:0.82352942"
         offset="1"
         id="stop143424" />
    </linearGradient>
    <linearGradient
       inkscape:collect="always"
       id="linearGradient108955">
      <stop
         style="stop-color:#675cde;stop-opacity:1"
         offset="0"
         id="stop108953" />
      <stop
         style="stop-color:#bb3be6;stop-opacity:1"
         offset="1"
         id="stop108951" />
    </linearGradient>
    <radialGradient
       inkscape:collect="always"
       xlink:href="#linearGradient108955"
       id="radialGradient108957"
       cx="2.9208231"
       cy="54.510529"
       fx="2.9208231"
       fy="54.510529"
       r="2.7781248"
       gradientTransform="matrix(1.2267355,0,0,1.2267359,-0.67265879,-12.365852)"
       gradientUnits="userSpaceOnUse" />
    <radialGradient
       inkscape:collect="always"
       xlink:href="#linearGradient143428"
       id="radialGradient143430"
       cx="4.3106923"
       cy="53.282738"
       fx="4.3106923"
       fy="53.282738"
       r="2.7781248"
       gradientTransform="matrix(-1.0476183,0,0,-1.0476187,8.4847121,109.26583)"
       gradientUnits="userSpaceOnUse" />
    <linearGradient
       inkscape:collect="always"
       xlink:href="#linearGradient5588"
       id="linearGradient5590"
       x1="5.2916684"
       y1="62.970837"
       x2="2.1166685"
       y2="66.675003"
       gradientUnits="userSpaceOnUse" />
    <linearGradient
       inkscape:collect="always"
       xlink:href="#linearGradient29397"
       id="linearGradient29399"
       x1="11.641668"
       y1="61.118752"
       x2="14.816669"
       y2="57.414585"
       gradientUnits="userSpaceOnUse" />
    <linearGradient
       inkscape:collect="always"
       xlink:href="#linearGradient108955"
       id="linearGradient19958"
       x1="64.501854"
       y1="58.145542"
       x2="80.484062"
       y2="58.145542"
       gradientUnits="userSpaceOnUse" />
    <linearGradient
       inkscape:collect="always"
       xlink:href="#linearGradient108955"
       id="linearGradient1788"
       gradientUnits="userSpaceOnUse"
       x1="64.501854"
       y1="58.145542"
       x2="80.484062"
       y2="58.145542" />
    <linearGradient
       inkscape:collect="always"
       xlink:href="#linearGradient108955"
       id="linearGradient1790"
       gradientUnits="userSpaceOnUse"
       x1="64.501854"
       y1="58.145542"
       x2="80.484062"
       y2="58.145542" />
    <linearGradient
       inkscape:collect="always"
       xlink:href="#linearGradient108955"
       id="linearGradient1792"
       gradientUnits="userSpaceOnUse"
       x1="64.501854"
       y1="58.145542"
       x2="80.484062"
       y2="58.145542" />
  </defs>
  <g
     inkscape:groupmode="layer"
     id="layer2"
     inkscape:label="Blocks"
     style="display:inline"
     transform="translate(-1.4983065e-6,-50.800003)">
    <g
       id="use36851-0"
       transform="translate(2.1529256e-7,50.800003)">
      <path
         style="font-variation-settings:normal;display:inline;opacity:1;fill:none;fill-opacity:1;stroke:#000000;stroke-width:0.529167;stroke-linecap:butt;stroke-linejoin:miter;stroke-miterlimit:4;stroke-dasharray:none;stroke-dashoffset:0;stroke-opacity:1;stop-color:#000000;stop-opacity:1"
         d="m 3.7041677,2.9674054 3.175,5.4992615"
         id="path1452"
         sodipodi:nodetypes="cc"
         inkscape:transform-center-x="1.5875"
         inkscape:transform-center-y="-2.7496308" />
      <path
         style="font-variation-settings:normal;display:inline;fill:none;fill-opacity:1;stroke:#000000;stroke-width:0.529167;stroke-linecap:butt;stroke-linejoin:miter;stroke-miterlimit:4;stroke-dasharray:none;stroke-dashoffset:0;stroke-opacity:1;stop-color:#000000"
         d="m 13.229168,8.466667 -6.3500003,-10e-8"
         id="use1454"
         sodipodi:nodetypes="cc"
         inkscape:transform-center-x="1.5875"
         inkscape:transform-center-y="-2.7496308" />
      <path
         style="font-variation-settings:normal;display:inline;fill:none;fill-opacity:1;stroke:#000000;stroke-width:0.529167;stroke-linecap:butt;stroke-linejoin:miter;stroke-miterlimit:4;stroke-dasharray:none;stroke-dashoffset:0;stroke-opacity:1;stop-color:#000000"
         d="M 3.7041675,13.965928 6.8791677,8.4666669"
         id="use1456"
         sodipodi:nodetypes="cc"
         inkscape:transform-center-x="1.5875"
         inkscape:transform-center-y="-2.7496308" />
      <path
         sodipodi:type="star"
         style="font-variation-settings:normal;opacity:1;vector-effect:none;fill:#000000;fill-opacity:1;fill-rule:evenodd;stroke:none;stroke-width:1.09106;stroke-linecap:round;stroke-linejoin:miter;stroke-miterlimit:4;stroke-dasharray:none;stroke-dashoffset:0;stroke-opacity:1;-inkscape-stroke:none;stop-color:#000000;stop-opacity:1"
         id="path1458"
         inkscape:flatsided="true"
         sodipodi:sides="3"
         sodipodi:cx="40"
         sodipodi:cy="48"
         sodipodi:r1="4"
         sodipodi:r2="2.5"
         sodipodi:arg1="0"
         sodipodi:arg2="1.0471976"
         inkscape:rounded="0"
         inkscape:randomized="0"
         d="m 44,48 -6,3.464102 v -6.928204 z"
         transform="matrix(0.22913593,0,0,0.22913593,-0.5050818,-2.5318581)"
         inkscape:transform-center-x="-2.8040736" />
      <path
         sodipodi:type="star"
         style="font-variation-settings:normal;opacity:1;vector-effect:none;fill:#000000;fill-opacity:1;fill-rule:evenodd;stroke:none;stroke-width:1.09106;stroke-linecap:round;stroke-linejoin:miter;stroke-miterlimit:4;stroke-dasharray:none;stroke-dashoffset:0;stroke-opacity:1;-inkscape-stroke:none;stop-color:#000000;stop-opacity:1"
         id="path1460"
         inkscape:flatsided="true"
         sodipodi:sides="3"
         sodipodi:cx="40"
         sodipodi:cy="48"
         sodipodi:r1="4"
         sodipodi:r2="2.5"
         sodipodi:arg1="0"
         sodipodi:arg2="1.0471976"
         inkscape:rounded="0"
         inkscape:randomized="0"
         d="m 44,48 -6,3.464102 v -6.928204 z"
         transform="matrix(0.11456796,-0.19843754,-0.19843754,-0.11456796,11.256837,22.88137)"
         inkscape:transform-center-x="0.79375016"
         inkscape:transform-center-y="0.9779393" />
      <path
         sodipodi:type="star"
         style="font-variation-settings:normal;vector-effect:none;fill:#000000;fill-opacity:1;fill-rule:evenodd;stroke:none;stroke-width:1.09106;stroke-linecap:round;stroke-linejoin:miter;stroke-miterlimit:4;stroke-dasharray:none;stroke-dashoffset:0;stroke-opacity:1;-inkscape-stroke:none;stop-color:#000000"
         id="use1462"
         inkscape:flatsided="true"
         sodipodi:sides="3"
         sodipodi:cx="40"
         sodipodi:cy="48"
         sodipodi:r1="4"
         sodipodi:r2="2.5"
         sodipodi:arg1="0"
         sodipodi:arg2="1.0471976"
         inkscape:rounded="0"
         inkscape:randomized="0"
         d="m 44,48 -6,3.464102 v -6.928204 z"
         transform="matrix(-0.11456796,0.19843754,-0.19843754,-0.11456796,19.699419,8.2583887)"
         inkscape:transform-center-x="-2.8040736" />
      <path
         sodipodi:type="star"
         style="font-variation-settings:normal;opacity:1;vector-effect:none;fill:#000000;fill-opacity:1;fill-rule:evenodd;stroke:none;stroke-width:1.09106;stroke-linecap:round;stroke-linejoin:miter;stroke-miterlimit:4;stroke-dasharray:none;stroke-dashoffset:0;stroke-opacity:1;-inkscape-stroke:none;stop-color:#000000;stop-opacity:1"
         id="path1464"
         inkscape:flatsided="true"
         sodipodi:sides="3"
         sodipodi:cx="40"
         sodipodi:cy="48"
         sodipodi:r1="4"
         sodipodi:r2="2.5"
         sodipodi:arg1="0"
         sodipodi:arg2="1.0471976"
         inkscape:rounded="0"
         inkscape:randomized="0"
         d="m 44,48 -6,3.464102 v -6.928204 z"
         transform="matrix(0.11456796,0.19843754,0.19843754,-0.11456796,-8.1900412,4.3630804)"
         inkscape:transform-center-x="1.1906246"
         inkscape:transform-center-y="-1.6653467" />
    </g>
    <circle
       style="font-variation-settings:normal;display:inline;vector-effect:none;fill:url(#linearGradient5590);fill-opacity:1;fill-rule:evenodd;stroke:#000000;stroke-width:0.264583;stroke-linecap:round;stroke-linejoin:miter;stroke-miterlimit:4;stroke-dasharray:none;stroke-dashoffset:0;stroke-opacity:1;-inkscape-stroke:none;stop-color:#000000"
       id="circle33432-3-6"
       cx="3.7041709"
       cy="64.76593"
       r="2.6458335" />
    <circle
       style="font-variation-settings:normal;display:inline;vector-effect:none;fill:url(#linearGradient29399);fill-opacity:1;fill-rule:evenodd;stroke:#000000;stroke-width:0.264583;stroke-linecap:round;stroke-linejoin:miter;stroke-miterlimit:4;stroke-dasharray:none;stroke-dashoffset:0;stroke-opacity:1;-inkscape-stroke:none;stop-color:#000000"
       id="circle33388-5-3"
       cx="13.22917"
       cy="59.26667"
       r="2.6458335" />
    <ellipse
       style="font-variation-settings:normal;display:inline;vector-effect:none;fill:url(#radialGradient108957);fill-opacity:1;fill-rule:evenodd;stroke:none;stroke-width:0.264583;stroke-linecap:round;stroke-linejoin:miter;stroke-miterlimit:4;stroke-dasharray:none;stroke-dashoffset:0;stroke-opacity:1;-inkscape-stroke:none;stop-color:#000000"
       id="ellipse108085"
       cx="3.7041709"
       cy="53.767406"
       rx="2.6458333"
       ry="2.6458335" />
    <ellipse
       style="font-variation-settings:normal;display:inline;vector-effect:none;fill:url(#radialGradient143430);fill-opacity:1;fill-rule:evenodd;stroke:#000000;stroke-width:0.264583;stroke-linecap:round;stroke-linejoin:miter;stroke-miterlimit:4;stroke-dasharray:none;stroke-dashoffset:0;stroke-opacity:1;-inkscape-stroke:none;stop-color:#000000"
       id="ellipse143404"
       cx="3.7041709"
       cy="53.767406"
       ry="2.6458335"
       rx="2.6458333" />
  </g>
  <g
     inkscape:label="Icons"
     inkscape:groupmode="layer"
     id="layer1"
     style="display:inline"
     transform="translate(-1.4983065e-6,-50.800003)">
    <g
       id="use4341-0"
       transform="translate(9.1529255e-7,50.8)">
      <g
         style="display:inline;stroke-width:3.77952"
         transform="matrix(0.19843744,0,0,0.19843744,-27.053634,4.5549064)"
         id="g1600">
        <circle
           style="color:#000000;clip-rule:nonzero;display:inline;overflow:visible;visibility:visible;opacity:1;isolation:auto;mix-blend-mode:normal;color-interpolation:sRGB;color-interpolation-filters:linearRGB;solid-color:#000000;solid-opacity:1;vector-effect:none;fill:#000000;fill-opacity:1;fill-rule:nonzero;stroke:none;stroke-width:7.55905;stroke-linecap:round;stroke-linejoin:miter;stroke-miterlimit:4;stroke-dasharray:none;stroke-dashoffset:0;stroke-opacity:1;marker:none;marker-start:none;marker-end:none;color-rendering:auto;image-rendering:auto;shape-rendering:auto;text-rendering:auto;enable-background:accumulate"
           id="circle1586"
           cx="155"
           cy="-8.0000086"
           r="5" />
        <rect
           style="color:#000000;clip-rule:nonzero;display:inline;overflow:visible;visibility:visible;opacity:1;isolation:auto;mix-blend-mode:normal;color-interpolation:sRGB;color-interpolation-filters:linearRGB;solid-color:#000000;solid-opacity:1;vector-effect:none;fill:#000000;fill-opacity:1;fill-rule:nonzero;stroke:none;stroke-width:7.55905;stroke-linecap:round;stroke-linejoin:miter;stroke-miterlimit:4;stroke-dasharray:none;stroke-dashoffset:0;stroke-opacity:1;marker:none;marker-start:none;marker-end:none;color-rendering:auto;image-rendering:auto;shape-rendering:auto;text-rendering:auto;enable-background:accumulate"
           id="rect1588"
           width="1"
           height="16.000004"
           x="154.5"
           y="-16.00001" />
        <rect
           style="color:#000000;clip-rule:nonzero;display:inline;overflow:visible;visibility:visible;isolation:auto;mix-blend-mode:normal;color-interpolation:sRGB;color-interpolation-filters:linearRGB;solid-color:#000000;solid-opacity:1;vector-effect:none;fill:#000000;fill-opacity:1;fill-rule:nonzero;stroke:none;stroke-width:7.55905;stroke-linecap:round;stroke-linejoin:miter;stroke-miterlimit:4;stroke-dasharray:none;stroke-dashoffset:0;stroke-opacity:1;marker:none;marker-start:none;marker-end:none;color-rendering:auto;image-rendering:auto;shape-rendering:auto;text-rendering:auto;enable-background:accumulate"
           id="use1590"
           width="1"
           height="16.000004"
           x="129.73393"
           y="-92.428207"
           transform="rotate(30)" />
        <rect
           style="color:#000000;clip-rule:nonzero;display:inline;overflow:visible;visibility:visible;isolation:auto;mix-blend-mode:normal;color-interpolation:sRGB;color-interpolation-filters:linearRGB;solid-color:#000000;solid-opacity:1;vector-effect:none;fill:#000000;fill-opacity:1;fill-rule:nonzero;stroke:none;stroke-width:7.55905;stroke-linecap:round;stroke-linejoin:miter;stroke-miterlimit:4;stroke-dasharray:none;stroke-dashoffset:0;stroke-opacity:1;marker:none;marker-start:none;marker-end:none;color-rendering:auto;image-rendering:auto;shape-rendering:auto;text-rendering:auto;enable-background:accumulate"
           id="use1592"
           width="1"
           height="16.000004"
           x="70.071785"
           y="-146.23393"
           transform="rotate(60)" />
        <rect
           style="color:#000000;clip-rule:nonzero;display:inline;overflow:visible;visibility:visible;isolation:auto;mix-blend-mode:normal;color-interpolation:sRGB;color-interpolation-filters:linearRGB;solid-color:#000000;solid-opacity:1;vector-effect:none;fill:#000000;fill-opacity:1;fill-rule:nonzero;stroke:none;stroke-width:7.55905;stroke-linecap:round;stroke-linejoin:miter;stroke-miterlimit:4;stroke-dasharray:none;stroke-dashoffset:0;stroke-opacity:1;marker:none;marker-start:none;marker-end:none;color-rendering:auto;image-rendering:auto;shape-rendering:auto;text-rendering:auto;enable-background:accumulate"
           id="use1594"
           width="1"
           height="16.000004"
           x="-8.5000162"
           y="-163"
           transform="rotate(90)" />
        <rect
           style="color:#000000;clip-rule:nonzero;display:inline;overflow:visible;visibility:visible;isolation:auto;mix-blend-mode:normal;color-interpolation:sRGB;color-interpolation-filters:linearRGB;solid-color:#000000;solid-opacity:1;vector-effect:none;fill:#000000;fill-opacity:1;fill-rule:nonzero;stroke:none;stroke-width:7.55905;stroke-linecap:round;stroke-linejoin:miter;stroke-miterlimit:4;stroke-dasharray:none;stroke-dashoffset:0;stroke-opacity:1;marker:none;marker-start:none;marker-end:none;color-rendering:auto;image-rendering:auto;shape-rendering:auto;text-rendering:auto;enable-background:accumulate"
           id="use1596"
           width="1"
           height="16.000004"
           x="-84.9282"
           y="-138.23392"
           transform="rotate(120)" />
        <rect
           style="color:#000000;clip-rule:nonzero;display:inline;overflow:visible;visibility:visible;isolation:auto;mix-blend-mode:normal;color-interpolation:sRGB;color-interpolation-filters:linearRGB;solid-color:#000000;solid-opacity:1;vector-effect:none;fill:#000000;fill-opacity:1;fill-rule:nonzero;stroke:none;stroke-width:7.55905;stroke-linecap:round;stroke-linejoin:miter;stroke-miterlimit:4;stroke-dasharray:none;stroke-dashoffset:0;stroke-opacity:1;marker:none;marker-start:none;marker-end:none;color-rendering:auto;image-rendering:auto;shape-rendering:auto;text-rendering:auto;enable-background:accumulate"
           id="use1598"
           width="1"
           height="16.000004"
           x="-138.73393"
           y="-78.571777"
           transform="rotate(150)" />
      </g>
      <g
         id="g1610"
         transform="matrix(0.08400522,0,0,0.08400522,-35.983339,-38.828843)"
         inkscape:export-filename="./wind_storage_FR.png"
         inkscape:export-xdpi="150.03252"
         inkscape:export-ydpi="150.03252"
         style="display:inline">
        <g
           style="display:inline"
           id="g1608"
           transform="translate(-151.1921,60.959583)">
          <path
             style="display:inline;fill:#000000;fill-opacity:1;stroke:none;stroke-width:1.06667"
             d="m 718.12123,492.49761 v 25.29764 h 37.79527 v -25.29764 l -18.89764,-12.49763 -18.89763,12.49763"
             id="path1602"
             inkscape:connector-curvature="0"
             sodipodi:nodetypes="cccccc"
             inkscape:export-filename="/home/pierre/Documents eolien/Travaux/50 Images/wind_storage.png"
             inkscape:export-xdpi="129.68228"
             inkscape:export-ydpi="129.68228" />
          <rect
             y="497.78329"
             x="722.6106"
             height="9.2471447"
             width="12.182525"
             id="rect1604"
             style="color:#000000;display:inline;overflow:visible;visibility:visible;fill:#ffffff;fill-opacity:1;fill-rule:nonzero;stroke:none;stroke-width:0.755906;marker:none;enable-background:accumulate" />
          <rect
             style="color:#000000;display:inline;overflow:visible;visibility:visible;fill:#ffffff;fill-opacity:1;fill-rule:nonzero;stroke:none;stroke-width:0.755906;marker:none;enable-background:accumulate"
             id="rect1606"
             width="12.182525"
             height="9.2471447"
             x="739.1153"
             y="497.78329" />
        </g>
      </g>
      <g
         style="display:inline"
         inkscape:export-ydpi="150.03252"
         inkscape:export-xdpi="150.03252"
         inkscape:export-filename="./wind_storage_FR.png"
         transform="matrix(0.08367052,0,0,0.08367052,-45.312263,-36.562807)"
         id="g1618">
        <path
           style="display:inline;fill:#000000;fill-opacity:1;stroke:none;stroke-width:1.06667"
           d="m 566.92913,591.25247 v 25.29764 h 37.79528 v -25.29764 h -37.79528"
           id="path1612"
           inkscape:connector-curvature="0"
           sodipodi:nodetypes="ccccc"
           inkscape:export-filename="/home/pierre/Documents eolien/Travaux/50 Images/wind_storage.png"
           inkscape:export-xdpi="129.68228"
           inkscape:export-ydpi="129.68228" />
        <path
           inkscape:connector-curvature="0"
           id="path1614"
           d="m 590.88774,599.7858 h 7.55907"
           style="display:inline;fill:none;stroke:#ffffff;stroke-width:1.88976;stroke-linecap:butt;stroke-linejoin:miter;stroke-miterlimit:4;stroke-dasharray:none;stroke-opacity:1"
           inkscape:export-filename="/home/pierre/Documents eolien/Travaux/50 Images/wind_storage.png"
           inkscape:export-xdpi="129.68228"
           inkscape:export-ydpi="129.68228" />
        <path
           inkscape:connector-curvature="0"
           d="m 576.91249,596.00628 v 7.55905 m -3.77953,-3.77952 h 7.55905"
           style="display:inline;fill:none;stroke:#ffffff;stroke-width:1.88976;stroke-linecap:butt;stroke-linejoin:miter;stroke-miterlimit:4;stroke-dasharray:none;stroke-opacity:1"
           id="path1616"
           inkscape:export-filename="/home/pierre/Documents eolien/Travaux/50 Images/wind_storage.png"
           inkscape:export-xdpi="129.68228"
           inkscape:export-ydpi="129.68228" />
      </g>
    </g>
  </g>
  <g
     inkscape:groupmode="layer"
     id="layer3"
     inkscape:label="Text"
     style="display:inline"
     transform="translate(-1.4983065e-6,-50.800003)">
    <g
       aria-label="Microgrids.web"
       id="text1174"
       style="font-size:9.87778px;line-height:1.25;font-family:'Linux Biolinum O';-inkscape-font-specification:'Linux Biolinum O, Normal';letter-spacing:0px;word-spacing:0px;display:inline;stroke-width:0.264583">
      <path
         d="m 19.963062,55.004409 c -0.345723,1.995311 -0.889001,4.721578 -1.274234,6.568723 0.108656,-0.02963 0.207433,-0.02963 0.325967,-0.02963 0.108655,0 0.187678,0 0.296333,0.02963 0.148167,-1.037167 0.484011,-3.239911 0.721078,-4.731456 h 0.04939 c 0.740834,1.570567 1.442156,3.170767 2.074334,4.701823 h 0.187678 c 0.7112,-1.619956 1.412522,-3.121378 2.192867,-4.67219 l 0.02963,0.0099 c 0.207434,1.550811 0.404989,3.062112 0.553156,4.691945 0.148167,-0.02963 0.335844,-0.02963 0.484011,-0.02963 0.148167,0 0.404989,0 0.553156,0.02963 -0.3556,-2.113845 -0.651934,-4.168423 -0.928512,-6.568723 h -0.246944 l -2.400301,4.899379 h -0.07902 c -0.780344,-1.619956 -1.491545,-3.200401 -2.212623,-4.899379 z"
         id="path1274" />
      <path
         d="m 27.598582,55.646464 c 0,0.2667 0.237067,0.503767 0.503767,0.503767 0.2667,0 0.503767,-0.237067 0.503767,-0.503767 0,-0.2667 -0.237067,-0.503766 -0.503767,-0.503766 -0.2667,0 -0.503767,0.237066 -0.503767,0.503766 z m 0.09878,3.575757 v 0.543278 c 0,0.740833 -0.01975,1.2446 -0.0889,1.778 l 0.01976,0.02963 c 0.118533,-0.01976 0.345722,-0.02963 0.464255,-0.02963 0.118534,0 0.345723,0.0099 0.464256,0.02963 l 0.01976,-0.02963 c -0.07902,-0.553156 -0.0889,-1.027289 -0.0889,-1.778 v -0.701323 c 0,-0.740833 0.01975,-1.096433 0.0889,-1.698978 0,-0.0889 -0.01976,-0.09878 -0.0889,-0.09878 -0.227189,0.02963 -0.651934,0.02963 -0.859367,0.0099 l -0.01976,0.02963 c 0.05927,0.424745 0.0889,1.175456 0.0889,1.91629 z"
         id="path1276" />
      <path
         d="m 31.846011,57.602265 c 0.375356,0 0.721078,0.286455 0.987778,0.730956 l 0.128411,-0.0099 0.227189,-0.809978 -0.01976,-0.02963 c -0.306211,-0.158044 -0.819855,-0.276577 -1.313744,-0.276577 -1.027289,0 -2.103967,0.839611 -2.103967,2.182989 0,1.382889 0.780344,2.252134 1.985433,2.252134 0.592667,0 1.056923,-0.197556 1.452034,-0.701323 L 33.001711,60.733521 H 32.9622 c -0.375356,0.335845 -0.691445,0.414867 -1.056922,0.414867 -0.721078,0 -1.284112,-0.651934 -1.284112,-1.807634 0,-1.086556 0.572911,-1.738489 1.224845,-1.738489 z"
         id="path1278" />
      <path
         d="m 35.263714,58.24432 v -0.898877 c 0,-0.06915 -0.01976,-0.09878 -0.05927,-0.09878 -0.227189,0.04939 -0.582789,0.05927 -0.8001,0.02963 l -0.01976,0.02963 c 0.06914,0.434623 0.0889,1.175456 0.0889,1.91629 v 0.543278 c 0,0.740833 -0.01976,1.254478 -0.0889,1.778 l 0.01976,0.02963 c 0.118533,-0.01976 0.345722,-0.02963 0.464255,-0.02963 0.118534,0 0.345723,0.0099 0.464256,0.02963 l 0.01976,-0.02963 c -0.07902,-0.563033 -0.0889,-1.027289 -0.0889,-1.778 v -0.513645 c 0,-0.414867 0.118533,-0.651933 0.335844,-0.9779 0.138289,-0.217311 0.365478,-0.345722 0.553156,-0.345722 0.197555,0 0.385233,0.01975 0.513644,0.138288 l 0.07902,-0.01975 0.197555,-0.730956 -0.03951,-0.03951 c -0.167922,-0.04939 -0.1778,-0.06914 -0.3556,-0.06914 -0.5334,0 -0.819856,0.306211 -1.254478,1.056922 z"
         id="path1280" />
      <path
         d="m 37.417052,59.518554 c 0,1.185334 0.780345,2.123723 2.09409,2.123723 1.303866,0 2.094089,-0.918634 2.094089,-2.212623 0,-1.343378 -0.721078,-2.2225 -2.054578,-2.2225 -1.29399,0 -2.133601,0.908755 -2.133601,2.3114 z m 2.064456,-1.916289 c 1.047045,0 1.254478,0.809978 1.254478,2.005189 0,0.948267 -0.474133,1.639712 -1.135944,1.639712 -1.047045,0 -1.313745,-1.135945 -1.313745,-1.896534 0,-0.859367 0.2667,-1.748367 1.195211,-1.748367 z"
         id="path1282" />
      <path
         d="m 42.978222,62.570788 c 0,-0.325967 0.296333,-0.691444 0.642055,-0.879122 0.286456,0 0.740834,-0.02963 0.879123,-0.02963 0.474133,0 0.770467,0.0099 1.047045,0.167923 0.286455,0.167922 0.385233,0.454377 0.385233,0.7112 0,0.602544 -0.809978,0.918633 -1.659467,0.918633 -0.642056,0 -1.293989,-0.217311 -1.293989,-0.889 z M 45.8329,58.728332 c 0,-0.681567 -0.2667,-0.997656 -0.503767,-1.145823 0.296334,0.01976 0.622301,0.05927 1.037167,0.09878 l 0.02963,-0.02963 c -0.01976,-0.0889 -0.02963,-0.167923 -0.02963,-0.256823 0,-0.0889 0.0099,-0.167922 0.02963,-0.256822 l -0.02963,-0.02963 c -0.474133,0.04939 -0.829733,0.148166 -1.560689,0.187678 -0.1778,-0.05927 -0.395111,-0.0889 -0.602544,-0.0889 -0.780345,0 -1.679223,0.523522 -1.679223,1.501422 0,0.740834 0.424744,1.076678 0.701322,1.234723 -0.286455,0.197555 -0.632178,0.484011 -0.632178,0.819855 0,0.404989 0.237067,0.760589 0.760589,0.859367 -0.2667,0.108656 -0.582789,0.296334 -0.829733,0.493889 -0.128411,0.187678 -0.227189,0.474134 -0.227189,0.651934 0,0.780344 0.849489,1.116189 1.896534,1.116189 1.540933,0 2.459567,-0.642056 2.459567,-1.570567 0,-0.434622 -0.138289,-0.740834 -0.414867,-0.9779 -0.375355,-0.316089 -1.047044,-0.325967 -1.392767,-0.325967 -0.167922,0 -0.563033,0.01976 -0.790222,0.04939 -0.138289,0.0099 -0.237067,0.01975 -0.286456,0.01975 -0.276578,0 -0.572911,-0.03951 -0.572911,-0.464255 0,-0.197556 0.04939,-0.365478 0.2667,-0.553156 0.128411,0.06914 0.424745,0.138289 0.730956,0.138289 1.027289,0 1.639711,-0.691445 1.639711,-1.471789 z m -0.770467,0.0099 c 0,0.602545 -0.246944,1.066801 -0.839611,1.066801 -0.7112,0 -0.928511,-0.464256 -0.928511,-1.145823 0,-0.651933 0.296333,-1.076678 0.869244,-1.076678 0.642056,0 0.898878,0.454378 0.898878,1.1557 z"
         id="path1284" />
      <path
         d="m 48.559154,58.24432 v -0.898877 c 0,-0.06915 -0.01975,-0.09878 -0.05927,-0.09878 -0.227189,0.04939 -0.582789,0.05927 -0.800101,0.02963 l -0.01976,0.02963 c 0.06914,0.434623 0.0889,1.175456 0.0889,1.91629 v 0.543278 c 0,0.740833 -0.01976,1.254478 -0.0889,1.778 l 0.01976,0.02963 c 0.118534,-0.01976 0.345723,-0.02963 0.464256,-0.02963 0.118533,0 0.345722,0.0099 0.464256,0.02963 l 0.01976,-0.02963 c -0.07902,-0.563033 -0.0889,-1.027289 -0.0889,-1.778 v -0.513645 c 0,-0.414867 0.118534,-0.651933 0.335845,-0.9779 0.138289,-0.217311 0.365478,-0.345722 0.553155,-0.345722 0.197556,0 0.385234,0.01975 0.513645,0.138288 l 0.07902,-0.01975 0.197556,-0.730956 -0.03951,-0.03951 c -0.167923,-0.04939 -0.1778,-0.06914 -0.3556,-0.06914 -0.5334,0 -0.819856,0.306211 -1.254478,1.056922 z"
         id="path1286" />
      <path
         d="m 51.206396,55.646464 c 0,0.2667 0.237067,0.503767 0.503767,0.503767 0.2667,0 0.503767,-0.237067 0.503767,-0.503767 0,-0.2667 -0.237067,-0.503766 -0.503767,-0.503766 -0.2667,0 -0.503767,0.237066 -0.503767,0.503766 z m 0.09878,3.575757 v 0.543278 c 0,0.740833 -0.01976,1.2446 -0.0889,1.778 l 0.01976,0.02963 c 0.118533,-0.01976 0.345722,-0.02963 0.464255,-0.02963 0.118534,0 0.345723,0.0099 0.464256,0.02963 l 0.01976,-0.02963 c -0.07902,-0.553156 -0.0889,-1.027289 -0.0889,-1.778 v -0.701323 c 0,-0.740833 0.01976,-1.096433 0.0889,-1.698978 0,-0.0889 -0.01976,-0.09878 -0.0889,-0.09878 -0.227189,0.02963 -0.651934,0.02963 -0.859367,0.0099 l -0.01976,0.02963 c 0.05927,0.424745 0.0889,1.175456 0.0889,1.91629 z"
         id="path1288" />
      <path
         d="m 56.550259,60.42731 c -0.365478,0.464256 -0.819855,0.701322 -1.214967,0.701322 -0.5334,0 -0.987778,-0.5334 -0.987778,-1.768122 0,-1.481667 0.780345,-1.758245 1.264356,-1.758245 0.464256,0 0.701323,0.197555 0.938389,0.572911 z m 0,0.543278 h 0.01976 l 0.04939,0.572911 c 0,0.01976 0.02963,0.02963 0.0889,0.02963 0.128411,-0.0099 0.197555,-0.02963 0.335844,-0.02963 0.128411,0 0.316089,0.0099 0.4445,0.02963 l 0.01976,-0.02963 c -0.07902,-0.424745 -0.167922,-1.1557 -0.167922,-1.896534 v -3.042356 c 0,-0.730956 0.03951,-1.2446 0.0889,-1.857023 0,-0.06914 -0.02963,-0.09878 -0.0889,-0.09878 -0.256823,0.09878 -0.464256,0.167922 -0.859367,0.197555 l -0.01976,0.02963 c 0.06914,0.424744 0.0889,1.1557 0.0889,1.906411 v 0.642056 c -0.227189,-0.128411 -0.632178,-0.217311 -0.829733,-0.217311 -1.293989,0 -2.232378,0.889 -2.232378,2.232378 0,1.214967 0.721077,2.202745 1.787878,2.202745 0.474133,0 0.918633,-0.207434 1.274233,-0.671689 z"
         id="path1290" />
      <path
         d="m 58.71348,60.545843 -0.167922,0.829734 c 0.563033,0.197555 1.116189,0.2667 1.491545,0.2667 1.363133,0 1.679222,-0.809978 1.679222,-1.353256 0,-0.809978 -0.642055,-1.126067 -1.343378,-1.293989 -0.375355,-0.0889 -0.918633,-0.276578 -0.918633,-0.770467 0,-0.404989 0.325966,-0.6223 0.750711,-0.6223 0.513644,0 0.829733,0.404989 1.056922,0.671689 l 0.138289,-0.0099 0.197556,-0.730956 -0.01976,-0.02963 c -0.286455,-0.148167 -0.829733,-0.296333 -1.3335,-0.296333 -0.730956,0 -1.491545,0.385233 -1.491545,1.205089 0,0.790222 0.582789,1.056922 1.185334,1.214967 0.572911,0.158044 0.997656,0.316089 0.997656,0.8001 0,0.523522 -0.385234,0.819856 -0.908756,0.819856 -0.474134,0 -0.889,-0.325967 -1.165578,-0.711201 z"
         id="path1292" />
      <path
         d="m 62.664589,61.108877 c 0.07902,0.335844 0.217312,0.464255 0.533401,0.5334 h 0.03951 c 0.276578,-0.06914 0.424744,-0.207434 0.5334,-0.5334 v -0.03951 c -0.09878,-0.276578 -0.246945,-0.424745 -0.5334,-0.533401 h -0.03951 c -0.306212,0.128412 -0.444501,0.276578 -0.533401,0.533401 z"
         id="path1294" />
    </g>
    <g
       aria-label="Microgrids.web"
       id="g16481"
       style="font-size:9.87778px;line-height:1.25;font-family:'Linux Biolinum O';-inkscape-font-specification:'Linux Biolinum O, Normal';letter-spacing:0px;word-spacing:0px;display:inline;fill:url(#linearGradient19958);fill-opacity:1;stroke-width:0.264583">
      <path
         d="m 66.329241,61.58301 c 0.09878,-0.02963 0.227189,-0.02963 0.325967,-0.02963 0.09878,0 0.2667,0 0.3556,0.02963 0.2667,-0.750711 0.553156,-1.570567 0.869245,-2.341034 0.296333,0.770467 0.612422,1.570567 0.898878,2.331156 0.09878,-0.02963 0.158044,-0.02963 0.256822,-0.02963 0.09878,0 0.276578,0 0.365478,0.02963 0.484011,-1.165578 1.274234,-3.062111 1.837267,-4.296834 -0.0889,0.02963 -0.325967,0.02963 -0.424745,0.02963 -0.09878,0 -0.246944,0 -0.335844,-0.02963 -0.365478,1.165578 -0.809978,2.429934 -1.224845,3.378201 h -0.07902 c -0.404989,-1.086556 -0.7112,-2.331156 -0.938389,-3.378201 -0.128411,0.02963 -0.3556,0.02963 -0.493889,0.02963 -0.158045,0 -0.414867,0 -0.572911,-0.02963 0.128411,0.404989 0.286455,0.839611 0.454378,1.293989 -0.256823,0.740834 -0.533401,1.481667 -0.819856,2.09409 h -0.05927 c -0.493889,-1.126067 -0.819856,-2.242256 -1.175456,-3.378201 -0.128411,0.02963 -0.3556,0.02963 -0.493889,0.02963 -0.158044,0 -0.414866,0 -0.572911,-0.02963 0.661811,1.452033 1.274234,2.854678 1.82739,4.296834 z"
         id="path16475"
         style="fill:url(#linearGradient1788);fill-opacity:1" />
      <path
         d="m 72.591723,58.846865 c 0.167922,-1.027289 0.809978,-1.2446 1.126067,-1.2446 0.385233,0 0.829733,0.365478 0.829733,1.106311 0,0.0889 -0.03951,0.138289 -0.138289,0.138289 z m 2.637367,1.669345 c -0.345722,0.375356 -0.809978,0.543278 -1.353256,0.543278 -0.345722,0 -0.809978,-0.128411 -1.076678,-0.563034 -0.1778,-0.276578 -0.237066,-0.671689 -0.237066,-1.254478 h 2.686756 c 0.108655,0 0.1778,-0.05927 0.1778,-0.167922 0,-0.829734 -0.404989,-1.8669 -1.708856,-1.8669 -1.017412,0 -2.024945,0.819855 -2.024945,2.271889 0,0.563033 0.108655,1.116189 0.4445,1.5113 0.335844,0.414867 0.898878,0.651934 1.570567,0.651934 0.7112,0 1.343378,-0.365478 1.718734,-0.879123 z"
         id="path16477"
         style="fill:url(#linearGradient1790);fill-opacity:1" />
      <path
         d="m 77.431825,60.743399 v -2.558345 c 0.385234,-0.395111 0.632178,-0.582789 1.037167,-0.582789 0.602545,0 1.135945,0.503767 1.135945,1.728611 0,1.224845 -0.365478,1.91629 -1.303867,1.91629 -0.306211,0 -0.671689,-0.256823 -0.869245,-0.503767 z m 0,-4.13879 c 0,-0.730956 0.0099,-1.2446 0.05927,-1.857023 0,-0.06914 -0.02963,-0.09878 -0.0889,-0.09878 -0.256822,0.09878 -0.464256,0.167922 -0.859367,0.197555 l -0.01975,0.02963 c 0.06914,0.424744 0.118533,1.1557 0.118533,1.906411 v 4.040012 c 0,0.385233 -0.0099,0.5334 -0.04939,0.740834 0.05927,0.05927 0.167922,0.07902 0.276578,0.07902 0.108655,-0.118534 0.217311,-0.286456 0.325967,-0.484011 0.286455,0.246944 0.740833,0.484011 1.165578,0.484011 1.007533,0 2.123722,-0.7112 2.123722,-2.390423 0,-1.205089 -0.859367,-2.0447 -1.817511,-2.0447 -0.474134,0 -0.898878,0.128411 -1.234723,0.493889 z"
         id="path16479"
         style="fill:url(#linearGradient1792);fill-opacity:1" />
    </g>
  </g>
  <metadata
     id="metadata14780">
    <rdf:RDF>
      <cc:Work
         rdf:about="">
        <dc:title>Logo for Microgrids.web</dc:title>
        <dc:creator>
          <cc:Agent>
            <dc:title>Pierre Haessig</dc:title>
          </cc:Agent>
        </dc:creator>
        <dc:date>2022-08</dc:date>
        <dc:rights>
          <cc:Agent>
            <dc:title>CC-BY</dc:title>
          </cc:Agent>
        </dc:rights>
        <cc:license
           rdf:resource="http://creativecommons.org/licenses/by/4.0/" />
      </cc:Work>
      <cc:License
         rdf:about="http://creativecommons.org/licenses/by/4.0/">
        <cc:permits
           rdf:resource="http://creativecommons.org/ns#Reproduction" />
        <cc:permits
           rdf:resource="http://creativecommons.org/ns#Distribution" />
        <cc:requires
           rdf:resource="http://creativecommons.org/ns#Notice" />
        <cc:requires
           rdf:resource="http://creativecommons.org/ns#Attribution" />
        <cc:permits
           rdf:resource="http://creativecommons.org/ns#DerivativeWorks" />
      </cc:License>
    </rdf:RDF>
  </metadata>
</svg>
