<?xml version="1.0" encoding="UTF-8" standalone="no"?>
<!-- Created with Inkscape (http://www.inkscape.org/) -->

<svg
   width="288.00003"
   height="64"
   viewBox="0 0 76.200006 16.933334"
   version="1.1"
   id="svg5"
   inkscape:version="1.1.2 (0a00cf5339, 2022-02-04)"
   sodipodi:docname="Microgrids-m.svg"
   xmlns:inkscape="http://www.inkscape.org/namespaces/inkscape"
   xmlns:sodipodi="http://sodipodi.sourceforge.net/DTD/sodipodi-0.dtd"
   xmlns="http://www.w3.org/2000/svg"
   xmlns:svg="http://www.w3.org/2000/svg"
   xmlns:rdf="http://www.w3.org/1999/02/22-rdf-syntax-ns#"
   xmlns:cc="http://creativecommons.org/ns#"
   xmlns:dc="http://purl.org/dc/elements/1.1/">
  <title
     id="title14784">Logo for Microgrids.m package</title>
  <sodipodi:namedview
     id="namedview7"
     pagecolor="#ffffff"
     bordercolor="#666666"
     borderopacity="1.0"
     inkscape:pageshadow="2"
     inkscape:pageopacity="0.0"
     inkscape:pagecheckerboard="0"
     inkscape:document-units="px"
     showgrid="false"
     units="px"
     width="64px"
     inkscape:zoom="1.2641982"
     inkscape:cx="-89.384718"
     inkscape:cy="-87.011673"
     inkscape:window-width="1920"
     inkscape:window-height="1008"
     inkscape:window-x="0"
     inkscape:window-y="0"
     inkscape:window-maximized="1"
     inkscape:current-layer="layer2"
     inkscape:snap-center="true"
     fit-margin-top="0"
     fit-margin-left="0"
     fit-margin-right="0"
     fit-margin-bottom="0"
     inkscape:snap-global="true">
    <inkscape:grid
       type="xygrid"
       id="grid1906"
       spacingx="0.26458334"
       spacingy="0.26458334"
       empspacing="8"
       originx="3.3160179e-06"
       originy="-33.866667" />
  </sodipodi:namedview>
  <defs
     id="defs2" />
  <g
     inkscape:groupmode="layer"
     id="layer2"
     inkscape:label="Blocks"
     style="display:inline"
     transform="translate(1.5442603e-6,-33.866669)">
    <g
       id="use36851-4"
       transform="translate(-8.6105379e-7,33.866667)">
      <path
         style="font-variation-settings:normal;display:inline;opacity:1;fill:none;fill-opacity:1;stroke:#000000;stroke-width:0.529167;stroke-linecap:butt;stroke-linejoin:miter;stroke-miterlimit:4;stroke-dasharray:none;stroke-dashoffset:0;stroke-opacity:1;stop-color:#000000;stop-opacity:1"
         d="m 3.7041677,2.9674054 3.175,5.4992615"
         id="path1004"
         sodipodi:nodetypes="cc"
         inkscape:transform-center-x="1.5875"
         inkscape:transform-center-y="-2.7496308" />
      <path
         style="font-variation-settings:normal;display:inline;fill:none;fill-opacity:1;stroke:#000000;stroke-width:0.529167;stroke-linecap:butt;stroke-linejoin:miter;stroke-miterlimit:4;stroke-dasharray:none;stroke-dashoffset:0;stroke-opacity:1;stop-color:#000000"
         d="m 13.229168,8.466667 -6.3500003,-10e-8"
         id="use1006"
         sodipodi:nodetypes="cc"
         inkscape:transform-center-x="1.5875"
         inkscape:transform-center-y="-2.7496308" />
      <path
         style="font-variation-settings:normal;display:inline;fill:none;fill-opacity:1;stroke:#000000;stroke-width:0.529167;stroke-linecap:butt;stroke-linejoin:miter;stroke-miterlimit:4;stroke-dasharray:none;stroke-dashoffset:0;stroke-opacity:1;stop-color:#000000"
         d="M 3.7041675,13.965928 6.8791677,8.4666669"
         id="use1008"
         sodipodi:nodetypes="cc"
         inkscape:transform-center-x="1.5875"
         inkscape:transform-center-y="-2.7496308" />
      <path
         sodipodi:type="star"
         style="font-variation-settings:normal;opacity:1;vector-effect:none;fill:#000000;fill-opacity:1;fill-rule:evenodd;stroke:none;stroke-width:1.09106;stroke-linecap:round;stroke-linejoin:miter;stroke-miterlimit:4;stroke-dasharray:none;stroke-dashoffset:0;stroke-opacity:1;-inkscape-stroke:none;stop-color:#000000;stop-opacity:1"
         id="path1010"
         inkscape:flatsided="true"
         sodipodi:sides="3"
         sodipodi:cx="40"
         sodipodi:cy="48"
         sodipodi:r1="4"
         sodipodi:r2="2.5"
         sodipodi:arg1="0"
         sodipodi:arg2="1.0471976"
         inkscape:rounded="0"
         inkscape:randomized="0"
         d="m 44,48 -6,3.464102 v -6.928204 z"
         transform="matrix(0.22913593,0,0,0.22913593,-0.5050818,-2.5318581)"
         inkscape:transform-center-x="-2.8040736" />
      <path
         sodipodi:type="star"
         style="font-variation-settings:normal;opacity:1;vector-effect:none;fill:#000000;fill-opacity:1;fill-rule:evenodd;stroke:none;stroke-width:1.09106;stroke-linecap:round;stroke-linejoin:miter;stroke-miterlimit:4;stroke-dasharray:none;stroke-dashoffset:0;stroke-opacity:1;-inkscape-stroke:none;stop-color:#000000;stop-opacity:1"
         id="path1012"
         inkscape:flatsided="true"
         sodipodi:sides="3"
         sodipodi:cx="40"
         sodipodi:cy="48"
         sodipodi:r1="4"
         sodipodi:r2="2.5"
         sodipodi:arg1="0"
         sodipodi:arg2="1.0471976"
         inkscape:rounded="0"
         inkscape:randomized="0"
         d="m 44,48 -6,3.464102 v -6.928204 z"
         transform="matrix(0.11456796,-0.19843754,-0.19843754,-0.11456796,11.256837,22.88137)"
         inkscape:transform-center-x="0.79375016"
         inkscape:transform-center-y="0.9779393" />
      <path
         sodipodi:type="star"
         style="font-variation-settings:normal;vector-effect:none;fill:#000000;fill-opacity:1;fill-rule:evenodd;stroke:none;stroke-width:1.09106;stroke-linecap:round;stroke-linejoin:miter;stroke-miterlimit:4;stroke-dasharray:none;stroke-dashoffset:0;stroke-opacity:1;-inkscape-stroke:none;stop-color:#000000"
         id="use1014"
         inkscape:flatsided="true"
         sodipodi:sides="3"
         sodipodi:cx="40"
         sodipodi:cy="48"
         sodipodi:r1="4"
         sodipodi:r2="2.5"
         sodipodi:arg1="0"
         sodipodi:arg2="1.0471976"
         inkscape:rounded="0"
         inkscape:randomized="0"
         d="m 44,48 -6,3.464102 v -6.928204 z"
         transform="matrix(-0.11456796,0.19843754,-0.19843754,-0.11456796,19.699419,8.2583887)"
         inkscape:transform-center-x="-2.8040736" />
      <path
         sodipodi:type="star"
         style="font-variation-settings:normal;opacity:1;vector-effect:none;fill:#000000;fill-opacity:1;fill-rule:evenodd;stroke:none;stroke-width:1.09106;stroke-linecap:round;stroke-linejoin:miter;stroke-miterlimit:4;stroke-dasharray:none;stroke-dashoffset:0;stroke-opacity:1;-inkscape-stroke:none;stop-color:#000000;stop-opacity:1"
         id="path1016"
         inkscape:flatsided="true"
         sodipodi:sides="3"
         sodipodi:cx="40"
         sodipodi:cy="48"
         sodipodi:r1="4"
         sodipodi:r2="2.5"
         sodipodi:arg1="0"
         sodipodi:arg2="1.0471976"
         inkscape:rounded="0"
         inkscape:randomized="0"
         d="m 44,48 -6,3.464102 v -6.928204 z"
         transform="matrix(0.11456796,0.19843754,0.19843754,-0.11456796,-8.1900412,4.3630804)"
         inkscape:transform-center-x="1.1906246"
         inkscape:transform-center-y="-1.6653467" />
    </g>
    <circle
       style="font-variation-settings:normal;display:inline;vector-effect:none;fill:#f5eb28;fill-opacity:1;fill-rule:evenodd;stroke:#000000;stroke-width:0.264583;stroke-linecap:round;stroke-linejoin:miter;stroke-miterlimit:4;stroke-dasharray:none;stroke-dashoffset:0;stroke-opacity:1;-inkscape-stroke:none;stop-color:#000000"
       id="path32944-8"
       cx="3.7041674"
       cy="36.834076"
       r="2.6458335" />
    <circle
       style="font-variation-settings:normal;display:inline;opacity:1;vector-effect:none;fill:#d22a20;fill-opacity:1;fill-rule:evenodd;stroke:#000000;stroke-width:0.264583;stroke-linecap:round;stroke-linejoin:miter;stroke-miterlimit:4;stroke-dasharray:none;stroke-dashoffset:0;stroke-opacity:1;-inkscape-stroke:none;stop-color:#000000;stop-opacity:1"
       id="circle33388-1"
       cx="13.229165"
       cy="42.333336"
       r="2.6458335" />
    <circle
       style="font-variation-settings:normal;display:inline;vector-effect:none;fill:#d22a20;fill-opacity:1;fill-rule:evenodd;stroke:#000000;stroke-width:0.264583;stroke-linecap:round;stroke-linejoin:miter;stroke-miterlimit:4;stroke-dasharray:none;stroke-dashoffset:0;stroke-opacity:1;-inkscape-stroke:none;stop-color:#000000"
       id="circle33432-36"
       cx="3.7041674"
       cy="47.832596"
       r="2.6458335" />
  </g>
  <g
     inkscape:label="Icons"
     inkscape:groupmode="layer"
     id="layer1"
     style="display:inline"
     transform="translate(1.5442603e-6,-33.866669)">
    <g
       id="use4341-9"
       transform="translate(-2.2136821e-7,33.866667)">
      <g
         style="display:inline;stroke-width:3.77952"
         transform="matrix(0.19843744,0,0,0.19843744,-27.053634,4.5549064)"
         id="g1132">
        <circle
           style="color:#000000;clip-rule:nonzero;display:inline;overflow:visible;visibility:visible;opacity:1;isolation:auto;mix-blend-mode:normal;color-interpolation:sRGB;color-interpolation-filters:linearRGB;solid-color:#000000;solid-opacity:1;vector-effect:none;fill:#000000;fill-opacity:1;fill-rule:nonzero;stroke:none;stroke-width:7.55905;stroke-linecap:round;stroke-linejoin:miter;stroke-miterlimit:4;stroke-dasharray:none;stroke-dashoffset:0;stroke-opacity:1;marker:none;marker-start:none;marker-end:none;color-rendering:auto;image-rendering:auto;shape-rendering:auto;text-rendering:auto;enable-background:accumulate"
           id="circle1118"
           cx="155"
           cy="-8.0000086"
           r="5" />
        <rect
           style="color:#000000;clip-rule:nonzero;display:inline;overflow:visible;visibility:visible;opacity:1;isolation:auto;mix-blend-mode:normal;color-interpolation:sRGB;color-interpolation-filters:linearRGB;solid-color:#000000;solid-opacity:1;vector-effect:none;fill:#000000;fill-opacity:1;fill-rule:nonzero;stroke:none;stroke-width:7.55905;stroke-linecap:round;stroke-linejoin:miter;stroke-miterlimit:4;stroke-dasharray:none;stroke-dashoffset:0;stroke-opacity:1;marker:none;marker-start:none;marker-end:none;color-rendering:auto;image-rendering:auto;shape-rendering:auto;text-rendering:auto;enable-background:accumulate"
           id="rect1120"
           width="1"
           height="16.000004"
           x="154.5"
           y="-16.00001" />
        <rect
           style="color:#000000;clip-rule:nonzero;display:inline;overflow:visible;visibility:visible;isolation:auto;mix-blend-mode:normal;color-interpolation:sRGB;color-interpolation-filters:linearRGB;solid-color:#000000;solid-opacity:1;vector-effect:none;fill:#000000;fill-opacity:1;fill-rule:nonzero;stroke:none;stroke-width:7.55905;stroke-linecap:round;stroke-linejoin:miter;stroke-miterlimit:4;stroke-dasharray:none;stroke-dashoffset:0;stroke-opacity:1;marker:none;marker-start:none;marker-end:none;color-rendering:auto;image-rendering:auto;shape-rendering:auto;text-rendering:auto;enable-background:accumulate"
           id="use1122"
           width="1"
           height="16.000004"
           x="129.73393"
           y="-92.428207"
           transform="rotate(30)" />
        <rect
           style="color:#000000;clip-rule:nonzero;display:inline;overflow:visible;visibility:visible;isolation:auto;mix-blend-mode:normal;color-interpolation:sRGB;color-interpolation-filters:linearRGB;solid-color:#000000;solid-opacity:1;vector-effect:none;fill:#000000;fill-opacity:1;fill-rule:nonzero;stroke:none;stroke-width:7.55905;stroke-linecap:round;stroke-linejoin:miter;stroke-miterlimit:4;stroke-dasharray:none;stroke-dashoffset:0;stroke-opacity:1;marker:none;marker-start:none;marker-end:none;color-rendering:auto;image-rendering:auto;shape-rendering:auto;text-rendering:auto;enable-background:accumulate"
           id="use1124"
           width="1"
           height="16.000004"
           x="70.071785"
           y="-146.23393"
           transform="rotate(60)" />
        <rect
           style="color:#000000;clip-rule:nonzero;display:inline;overflow:visible;visibility:visible;isolation:auto;mix-blend-mode:normal;color-interpolation:sRGB;color-interpolation-filters:linearRGB;solid-color:#000000;solid-opacity:1;vector-effect:none;fill:#000000;fill-opacity:1;fill-rule:nonzero;stroke:none;stroke-width:7.55905;stroke-linecap:round;stroke-linejoin:miter;stroke-miterlimit:4;stroke-dasharray:none;stroke-dashoffset:0;stroke-opacity:1;marker:none;marker-start:none;marker-end:none;color-rendering:auto;image-rendering:auto;shape-rendering:auto;text-rendering:auto;enable-background:accumulate"
           id="use1126"
           width="1"
           height="16.000004"
           x="-8.5000162"
           y="-163"
           transform="rotate(90)" />
        <rect
           style="color:#000000;clip-rule:nonzero;display:inline;overflow:visible;visibility:visible;isolation:auto;mix-blend-mode:normal;color-interpolation:sRGB;color-interpolation-filters:linearRGB;solid-color:#000000;solid-opacity:1;vector-effect:none;fill:#000000;fill-opacity:1;fill-rule:nonzero;stroke:none;stroke-width:7.55905;stroke-linecap:round;stroke-linejoin:miter;stroke-miterlimit:4;stroke-dasharray:none;stroke-dashoffset:0;stroke-opacity:1;marker:none;marker-start:none;marker-end:none;color-rendering:auto;image-rendering:auto;shape-rendering:auto;text-rendering:auto;enable-background:accumulate"
           id="use1128"
           width="1"
           height="16.000004"
           x="-84.9282"
           y="-138.23392"
           transform="rotate(120)" />
        <rect
           style="color:#000000;clip-rule:nonzero;display:inline;overflow:visible;visibility:visible;isolation:auto;mix-blend-mode:normal;color-interpolation:sRGB;color-interpolation-filters:linearRGB;solid-color:#000000;solid-opacity:1;vector-effect:none;fill:#000000;fill-opacity:1;fill-rule:nonzero;stroke:none;stroke-width:7.55905;stroke-linecap:round;stroke-linejoin:miter;stroke-miterlimit:4;stroke-dasharray:none;stroke-dashoffset:0;stroke-opacity:1;marker:none;marker-start:none;marker-end:none;color-rendering:auto;image-rendering:auto;shape-rendering:auto;text-rendering:auto;enable-background:accumulate"
           id="use1130"
           width="1"
           height="16.000004"
           x="-138.73393"
           y="-78.571777"
           transform="rotate(150)" />
      </g>
      <g
         id="g1142"
         transform="matrix(0.08400522,0,0,0.08400522,-35.983339,-38.828843)"
         inkscape:export-filename="./wind_storage_FR.png"
         inkscape:export-xdpi="150.03252"
         inkscape:export-ydpi="150.03252"
         style="display:inline">
        <g
           style="display:inline"
           id="g1140"
           transform="translate(-151.1921,60.959583)">
          <path
             style="display:inline;fill:#000000;fill-opacity:1;stroke:none;stroke-width:1.06667"
             d="m 718.12123,492.49761 v 25.29764 h 37.79527 v -25.29764 l -18.89764,-12.49763 -18.89763,12.49763"
             id="path1134"
             inkscape:connector-curvature="0"
             sodipodi:nodetypes="cccccc"
             inkscape:export-filename="/home/pierre/Documents eolien/Travaux/50 Images/wind_storage.png"
             inkscape:export-xdpi="129.68228"
             inkscape:export-ydpi="129.68228" />
          <rect
             y="497.78329"
             x="722.6106"
             height="9.2471447"
             width="12.182525"
             id="rect1136"
             style="color:#000000;display:inline;overflow:visible;visibility:visible;fill:#ffffff;fill-opacity:1;fill-rule:nonzero;stroke:none;stroke-width:0.755906;marker:none;enable-background:accumulate" />
          <rect
             style="color:#000000;display:inline;overflow:visible;visibility:visible;fill:#ffffff;fill-opacity:1;fill-rule:nonzero;stroke:none;stroke-width:0.755906;marker:none;enable-background:accumulate"
             id="rect1138"
             width="12.182525"
             height="9.2471447"
             x="739.1153"
             y="497.78329" />
        </g>
      </g>
      <g
         style="display:inline"
         inkscape:export-ydpi="150.03252"
         inkscape:export-xdpi="150.03252"
         inkscape:export-filename="./wind_storage_FR.png"
         transform="matrix(0.08367052,0,0,0.08367052,-45.312263,-36.562807)"
         id="g1150">
        <path
           style="display:inline;fill:#000000;fill-opacity:1;stroke:none;stroke-width:1.06667"
           d="m 566.92913,591.25247 v 25.29764 h 37.79528 v -25.29764 h -37.79528"
           id="path1144"
           inkscape:connector-curvature="0"
           sodipodi:nodetypes="ccccc"
           inkscape:export-filename="/home/pierre/Documents eolien/Travaux/50 Images/wind_storage.png"
           inkscape:export-xdpi="129.68228"
           inkscape:export-ydpi="129.68228" />
        <path
           inkscape:connector-curvature="0"
           id="path1146"
           d="m 590.88774,599.7858 h 7.55907"
           style="display:inline;fill:none;stroke:#ffffff;stroke-width:1.88976;stroke-linecap:butt;stroke-linejoin:miter;stroke-miterlimit:4;stroke-dasharray:none;stroke-opacity:1"
           inkscape:export-filename="/home/pierre/Documents eolien/Travaux/50 Images/wind_storage.png"
           inkscape:export-xdpi="129.68228"
           inkscape:export-ydpi="129.68228" />
        <path
           inkscape:connector-curvature="0"
           d="m 576.91249,596.00628 v 7.55905 m -3.77953,-3.77952 h 7.55905"
           style="display:inline;fill:none;stroke:#ffffff;stroke-width:1.88976;stroke-linecap:butt;stroke-linejoin:miter;stroke-miterlimit:4;stroke-dasharray:none;stroke-opacity:1"
           id="path1148"
           inkscape:export-filename="/home/pierre/Documents eolien/Travaux/50 Images/wind_storage.png"
           inkscape:export-xdpi="129.68228"
           inkscape:export-ydpi="129.68228" />
      </g>
    </g>
  </g>
  <g
     inkscape:groupmode="layer"
     id="layer3"
     inkscape:label="Text"
     style="display:inline"
     transform="translate(1.5442603e-6,-33.866669)">
    <g
       aria-label="Microgrids.m"
       id="text1180"
       style="font-size:9.87778px;line-height:1.25;font-family:'Linux Biolinum O';-inkscape-font-specification:'Linux Biolinum O, Normal';letter-spacing:0px;word-spacing:0px;display:inline;stroke-width:0.264583">
      <path
         d="m 19.96306,38.071074 c -0.345723,1.995312 -0.889,4.721579 -1.274234,6.568724 0.108656,-0.02963 0.207434,-0.02963 0.325967,-0.02963 0.108655,0 0.187678,0 0.296333,0.02963 0.148167,-1.037167 0.484012,-3.239912 0.721078,-4.731457 h 0.04939 c 0.740834,1.570567 1.442156,3.170768 2.074334,4.701824 h 0.187678 c 0.7112,-1.619956 1.412522,-3.121379 2.192867,-4.67219 l 0.02963,0.0099 c 0.207434,1.550811 0.404989,3.062111 0.553156,4.691945 0.148167,-0.02963 0.335844,-0.02963 0.484011,-0.02963 0.148167,0 0.404989,0 0.553156,0.02963 -0.3556,-2.113845 -0.651934,-4.168423 -0.928511,-6.568724 H 24.98097 l -2.400301,4.899379 h -0.07902 c -0.780344,-1.619956 -1.491545,-3.200401 -2.212622,-4.899379 z"
         id="path1303" />
      <path
         d="m 27.598581,38.71313 c 0,0.2667 0.237066,0.503767 0.503766,0.503767 0.2667,0 0.503767,-0.237067 0.503767,-0.503767 0,-0.2667 -0.237067,-0.503767 -0.503767,-0.503767 -0.2667,0 -0.503766,0.237067 -0.503766,0.503767 z m 0.09878,3.575756 v 0.543278 c 0,0.740834 -0.01975,1.244601 -0.0889,1.778001 l 0.01976,0.02963 c 0.118533,-0.01976 0.345722,-0.02963 0.464256,-0.02963 0.118533,0 0.345722,0.0099 0.464255,0.02963 l 0.01976,-0.02963 c -0.07902,-0.553156 -0.0889,-1.027289 -0.0889,-1.778001 v -0.701322 c 0,-0.740834 0.01975,-1.096434 0.0889,-1.698978 0,-0.0889 -0.01976,-0.09878 -0.0889,-0.09878 -0.227189,0.02963 -0.651934,0.02963 -0.859367,0.0099 l -0.01976,0.02963 c 0.05927,0.424745 0.0889,1.175456 0.0889,1.916289 z"
         id="path1305" />
      <path
         d="m 31.846009,40.66893 c 0.375356,0 0.721078,0.286456 0.987778,0.730956 l 0.128411,-0.0099 0.227189,-0.809978 -0.01976,-0.02963 C 32.863415,40.392334 32.349771,40.2738 31.855882,40.2738 c -1.027289,0 -2.103967,0.839612 -2.103967,2.18299 0,1.382889 0.780344,2.252133 1.985433,2.252133 0.592667,0 1.056923,-0.197555 1.452034,-0.701322 l -0.187678,-0.207433 h -0.03951 c -0.375355,0.335844 -0.691444,0.414866 -1.056922,0.414866 -0.721078,0 -1.284112,-0.651933 -1.284112,-1.807633 0,-1.086556 0.572912,-1.73849 1.224845,-1.73849 z"
         id="path1307" />
      <path
         d="m 35.263712,41.310986 v -0.898878 c 0,-0.06914 -0.01976,-0.09878 -0.05927,-0.09878 -0.227189,0.04939 -0.582789,0.05927 -0.8001,0.02963 l -0.01976,0.02963 c 0.06914,0.434622 0.0889,1.175456 0.0889,1.916289 v 0.543278 c 0,0.740834 -0.01976,1.254478 -0.0889,1.778001 l 0.01976,0.02963 c 0.118533,-0.01976 0.345722,-0.02963 0.464255,-0.02963 0.118534,0 0.345723,0.0099 0.464256,0.02963 l 0.01976,-0.02963 c -0.07902,-0.563034 -0.0889,-1.027289 -0.0889,-1.778001 V 42.31852 c 0,-0.414867 0.118533,-0.651934 0.335844,-0.977901 0.138289,-0.217311 0.365478,-0.345722 0.553156,-0.345722 0.197555,0 0.385233,0.01976 0.513644,0.138289 l 0.07902,-0.01976 0.197555,-0.730956 -0.03951,-0.03951 c -0.167922,-0.04939 -0.1778,-0.06914 -0.3556,-0.06914 -0.5334,0 -0.819856,0.306211 -1.254478,1.056923 z"
         id="path1309" />
      <path
         d="m 37.41705,42.58522 c 0,1.185333 0.780345,2.123722 2.09409,2.123722 1.303867,0 2.094089,-0.918633 2.094089,-2.212622 0,-1.343378 -0.721078,-2.222501 -2.054578,-2.222501 -1.293989,0 -2.133601,0.908756 -2.133601,2.311401 z m 2.064456,-1.91629 c 1.047045,0 1.254478,0.809978 1.254478,2.00519 0,0.948267 -0.474133,1.639711 -1.135944,1.639711 -1.047045,0 -1.313745,-1.135944 -1.313745,-1.896534 0,-0.859366 0.2667,-1.748367 1.195211,-1.748367 z"
         id="path1311" />
      <path
         d="m 42.97822,45.637454 c 0,-0.325967 0.296333,-0.691445 0.642056,-0.879123 0.286455,0 0.740833,-0.02963 0.879122,-0.02963 0.474133,0 0.770467,0.0099 1.047045,0.167922 0.286455,0.167923 0.385233,0.454378 0.385233,0.7112 0,0.602545 -0.809978,0.918634 -1.659467,0.918634 -0.642056,0 -1.293989,-0.217311 -1.293989,-0.889 z m 2.854678,-3.842457 c 0,-0.681566 -0.2667,-0.997655 -0.503766,-1.145822 0.296333,0.01976 0.6223,0.05927 1.037166,0.09878 l 0.02963,-0.02963 c -0.01976,-0.0889 -0.02963,-0.167922 -0.02963,-0.256822 0,-0.0889 0.0099,-0.167922 0.02963,-0.256822 l -0.02963,-0.02963 c -0.474133,0.04939 -0.829733,0.148167 -1.560689,0.187678 -0.1778,-0.05927 -0.395111,-0.0889 -0.602544,-0.0889 -0.780345,0 -1.679223,0.523523 -1.679223,1.501423 0,0.740833 0.424745,1.076678 0.701322,1.234722 -0.286455,0.197556 -0.632178,0.484012 -0.632178,0.819856 0,0.404989 0.237067,0.760589 0.76059,0.859367 -0.266701,0.108655 -0.582789,0.296333 -0.829734,0.493889 -0.128411,0.187678 -0.227189,0.474133 -0.227189,0.651933 0,0.780345 0.849489,1.116189 1.896534,1.116189 1.540934,0 2.459567,-0.642055 2.459567,-1.570567 0,-0.434622 -0.138289,-0.740833 -0.414867,-0.9779 -0.375355,-0.316089 -1.047044,-0.325966 -1.392767,-0.325966 -0.167922,0 -0.563033,0.01975 -0.790222,0.04939 -0.138289,0.0099 -0.237067,0.01976 -0.286456,0.01976 -0.276578,0 -0.572911,-0.03951 -0.572911,-0.464256 0,-0.197555 0.04939,-0.365478 0.2667,-0.553155 0.128411,0.06914 0.424745,0.138289 0.730956,0.138289 1.027289,0 1.639711,-0.691445 1.639711,-1.47179 z m -0.770467,0.0099 c 0,0.602545 -0.246944,1.0668 -0.839611,1.0668 -0.7112,0 -0.928511,-0.464255 -0.928511,-1.145822 0,-0.651934 0.296333,-1.076678 0.869244,-1.076678 0.642056,0 0.898878,0.454378 0.898878,1.1557 z"
         id="path1313" />
      <path
         d="m 48.559152,41.310986 v -0.898878 c 0,-0.06914 -0.01975,-0.09878 -0.05927,-0.09878 -0.227189,0.04939 -0.582789,0.05927 -0.800101,0.02963 l -0.01975,0.02963 c 0.06914,0.434622 0.0889,1.175456 0.0889,1.916289 v 0.543278 c 0,0.740834 -0.01976,1.254478 -0.0889,1.778001 l 0.01975,0.02963 c 0.118534,-0.01976 0.345723,-0.02963 0.464256,-0.02963 0.118533,0 0.345722,0.0099 0.464256,0.02963 l 0.01975,-0.02963 c -0.07902,-0.563034 -0.0889,-1.027289 -0.0889,-1.778001 V 42.31852 c 0,-0.414867 0.118534,-0.651934 0.335845,-0.977901 0.138289,-0.217311 0.365478,-0.345722 0.553156,-0.345722 0.197555,0 0.385233,0.01976 0.513644,0.138289 l 0.07902,-0.01976 0.197556,-0.730956 -0.03951,-0.03951 c -0.167922,-0.04939 -0.1778,-0.06914 -0.3556,-0.06914 -0.5334,0 -0.819856,0.306211 -1.254478,1.056923 z"
         id="path1315" />
      <path
         d="m 51.206394,38.71313 c 0,0.2667 0.237067,0.503767 0.503767,0.503767 0.2667,0 0.503767,-0.237067 0.503767,-0.503767 0,-0.2667 -0.237067,-0.503767 -0.503767,-0.503767 -0.2667,0 -0.503767,0.237067 -0.503767,0.503767 z m 0.09878,3.575756 v 0.543278 c 0,0.740834 -0.01975,1.244601 -0.0889,1.778001 l 0.01976,0.02963 c 0.118533,-0.01976 0.345722,-0.02963 0.464255,-0.02963 0.118534,0 0.345723,0.0099 0.464256,0.02963 l 0.01976,-0.02963 c -0.07902,-0.553156 -0.0889,-1.027289 -0.0889,-1.778001 v -0.701322 c 0,-0.740834 0.01975,-1.096434 0.0889,-1.698978 0,-0.0889 -0.01976,-0.09878 -0.0889,-0.09878 -0.227189,0.02963 -0.651934,0.02963 -0.859367,0.0099 l -0.01976,0.02963 c 0.05927,0.424745 0.0889,1.175456 0.0889,1.916289 z"
         id="path1317" />
      <path
         d="m 56.550257,43.493976 c -0.365477,0.464255 -0.819855,0.701322 -1.214967,0.701322 -0.5334,0 -0.987778,-0.5334 -0.987778,-1.768123 0,-1.481667 0.780345,-1.758245 1.264356,-1.758245 0.464256,0 0.701323,0.197556 0.938389,0.572912 z m 0,0.543277 h 0.01976 l 0.04939,0.572912 c 0,0.01975 0.02963,0.02963 0.0889,0.02963 0.128411,-0.0099 0.197555,-0.02963 0.335844,-0.02963 0.128412,0 0.316089,0.0099 0.4445,0.02963 l 0.01976,-0.02963 C 57.42938,44.18542 57.34048,43.454464 57.34048,42.713631 v -3.042356 c 0,-0.730956 0.03951,-1.244601 0.0889,-1.857023 0,-0.06914 -0.02963,-0.09878 -0.0889,-0.09878 -0.256823,0.09878 -0.464256,0.167922 -0.859367,0.197556 l -0.01976,0.02963 c 0.06914,0.424745 0.0889,1.1557 0.0889,1.906412 v 0.642055 c -0.227189,-0.128411 -0.632178,-0.217311 -0.829733,-0.217311 -1.293989,0 -2.232378,0.889 -2.232378,2.232379 0,1.214966 0.721078,2.202744 1.787878,2.202744 0.474133,0 0.918633,-0.207433 1.274233,-0.671689 z"
         id="path1319" />
      <path
         d="m 58.713478,43.612509 -0.167922,0.829733 c 0.563033,0.197556 1.116189,0.2667 1.491545,0.2667 1.363133,0 1.679222,-0.809978 1.679222,-1.353255 0,-0.809978 -0.642055,-1.126067 -1.343378,-1.29399 -0.375355,-0.0889 -0.918633,-0.276577 -0.918633,-0.770466 0,-0.404989 0.325966,-0.622301 0.750711,-0.622301 0.513645,0 0.829734,0.404989 1.056922,0.671689 l 0.138289,-0.0099 0.197556,-0.730956 -0.01976,-0.02963 c -0.286455,-0.148167 -0.829733,-0.296334 -1.3335,-0.296334 -0.730956,0 -1.491545,0.385234 -1.491545,1.205089 0,0.790223 0.582789,1.056923 1.185334,1.214967 0.572911,0.158045 0.997656,0.316089 0.997656,0.800101 0,0.523522 -0.385234,0.819855 -0.908756,0.819855 -0.474133,0 -0.889,-0.325966 -1.165578,-0.7112 z"
         id="path1321" />
      <path
         d="m 62.664588,44.175542 c 0.07902,0.335845 0.217311,0.464256 0.5334,0.5334 h 0.03951 c 0.276578,-0.06914 0.424744,-0.207433 0.5334,-0.5334 v -0.03951 c -0.09878,-0.276578 -0.246945,-0.424744 -0.5334,-0.5334 h -0.03951 c -0.306212,0.128411 -0.4445,0.276578 -0.5334,0.5334 z"
         id="path1323" />
    </g>
    <g
       aria-label="Microgrids.m"
       id="g12115"
       style="font-size:9.87778px;line-height:1.25;font-family:'Linux Biolinum O';-inkscape-font-specification:'Linux Biolinum O, Normal';letter-spacing:0px;word-spacing:0px;display:inline;fill:#005594;fill-opacity:1;stroke-width:0.264583">
      <path
         d="m 65.904495,41.133186 v -0.721078 c 0,-0.06914 -0.01976,-0.09878 -0.05927,-0.09878 -0.227189,0.04939 -0.582789,0.05927 -0.8001,0.02963 l -0.01976,0.02963 c 0.06914,0.434622 0.0889,1.175456 0.0889,1.916289 v 0.543278 c 0,0.740834 -0.0099,1.244601 -0.0889,1.778001 l 0.01976,0.02963 c 0.118533,-0.01976 0.345722,-0.02963 0.464256,-0.02963 0.118533,0 0.345722,0.0099 0.464255,0.02963 l 0.01976,-0.02963 c -0.07902,-0.563034 -0.0889,-1.027289 -0.0889,-1.778001 v -1.195211 c 0.464256,-0.474134 1.017411,-0.770467 1.363134,-0.770467 0.375355,0 0.651933,0.217311 0.651933,0.879122 v 1.086556 c 0,0.740834 -0.0099,1.244601 -0.0889,1.778001 l 0.01976,0.02963 c 0.118533,-0.01976 0.345722,-0.02963 0.464255,-0.02963 0.118534,0 0.345723,0.0099 0.464256,0.02963 l 0.01975,-0.02963 c -0.07902,-0.563034 -0.0889,-1.027289 -0.0889,-1.778001 v -0.997656 c 0,-0.138288 0,-0.256822 -0.0099,-0.375355 0.474133,-0.523523 0.869244,-0.592667 1.254478,-0.592667 0.5334,0 0.790222,0.217311 0.790222,0.879122 v 1.086556 c 0,0.740834 -0.0099,1.244601 -0.0889,1.778001 l 0.01976,0.02963 c 0.118533,-0.01976 0.345722,-0.02963 0.464255,-0.02963 0.118534,0 0.345723,0.0099 0.464256,0.02963 l 0.01976,-0.02963 c -0.07902,-0.563034 -0.0889,-1.027289 -0.0889,-1.778001 v -0.987778 c 0,-0.879122 -0.158045,-1.570567 -1.224845,-1.570567 -0.5334,0 -1.106312,0.187678 -1.669345,0.780345 -0.0889,-0.474134 -0.493889,-0.780345 -1.047045,-0.780345 -0.612422,0 -1.195211,0.395111 -1.659467,0.889 z"
         id="path12113"
         style="fill:#005594;fill-opacity:1" />
    </g>
  </g>
  <metadata
     id="metadata14780">
    <rdf:RDF>
      <cc:Work
         rdf:about="">
        <dc:title>Logo for Microgrids.m package</dc:title>
        <dc:creator>
          <cc:Agent>
            <dc:title>Pierre Haessig</dc:title>
          </cc:Agent>
        </dc:creator>
        <dc:date>2022-08</dc:date>
        <dc:rights>
          <cc:Agent>
            <dc:title>CC-BY</dc:title>
          </cc:Agent>
        </dc:rights>
      </cc:Work>
    </rdf:RDF>
  </metadata>
</svg>
